<svg width="24" height="24" viewBox="0 0 24 24" fill="none" xmlns="http://www.w3.org/2000/svg">
<path d="M12 13.5385C12.4218 13.5385 12.7772 13.3939 13.0663 13.1048C13.3554 12.8157 13.5 12.4602 13.5 12.0385C13.5 11.6167 13.3554 11.2612 13.0663 10.9721C12.7772 10.683 12.4218 10.5385 12 10.5385C11.5782 10.5385 11.2228 10.683 10.9337 10.9721C10.6446 11.2612 10.5 11.6167 10.5 12.0385C10.5 12.4602 10.6446 12.8157 10.9337 13.1048C11.2228 13.3939 11.5782 13.5385 12 13.5385ZM8.5 16.9231H15.5V16.7712C15.5 16.4609 15.4173 16.1968 15.2519 15.9789C15.0865 15.7609 14.8635 15.5878 14.5827 15.4596C14.1878 15.2891 13.774 15.1571 13.3413 15.0634C12.9086 14.9699 12.4615 14.9231 12 14.9231C11.5385 14.9231 11.0914 14.9699 10.6587 15.0634C10.226 15.1571 9.81218 15.2891 9.4173 15.4596C9.13653 15.5878 8.91346 15.7609 8.74808 15.9789C8.58269 16.1968 8.5 16.4609 8.5 16.7712V16.9231ZM17.3846 21H6.61537C6.15512 21 5.77083 20.8458 5.4625 20.5375C5.15417 20.2292 5 19.8449 5 19.3846V4.61537C5 4.15512 5.15417 3.77083 5.4625 3.4625C5.77083 3.15417 6.15512 3 6.61537 3H12.9058C13.1212 3 13.3305 3.04359 13.5337 3.13078C13.7369 3.21794 13.9109 3.33397 14.0558 3.47885L18.5212 7.94422C18.666 8.08909 18.7821 8.26313 18.8692 8.46635C18.9564 8.66955 19 8.87884 19 9.09422V19.3846C19 19.8449 18.8458 20.2292 18.5375 20.5375C18.2292 20.8458 17.8449 21 17.3846 21ZM17.3846 20C17.5385 20 17.6795 19.9359 17.8077 19.8077C17.9359 19.6795 18 19.5385 18 19.3846V8.85L13.15 4H6.61537C6.46154 4 6.32052 4.0641 6.1923 4.1923C6.0641 4.32052 6 4.46154 6 4.61537V19.3846C6 19.5385 6.0641 19.6795 6.1923 19.8077C6.32052 19.9359 6.46154 20 6.61537 20H17.3846Z" fill="#163300"/>
</svg>
