<svg width="14" height="18" viewBox="0 0 14 18" fill="none" xmlns="http://www.w3.org/2000/svg">
<path d="M7 10.5385C7.4218 10.5385 7.77725 10.3939 8.06635 10.1048C8.35545 9.8157 8.5 9.46025 8.5 9.03845C8.5 8.61667 8.35545 8.26123 8.06635 7.97213C7.77725 7.68301 7.4218 7.53845 7 7.53845C6.5782 7.53845 6.22275 7.68301 5.93365 7.97213C5.64455 8.26123 5.5 8.61667 5.5 9.03845C5.5 9.46025 5.64455 9.8157 5.93365 10.1048C6.22275 10.3939 6.5782 10.5385 7 10.5385ZM3.5 13.9231H10.5V13.7712C10.5 13.4609 10.4173 13.1968 10.2519 12.9788C10.0865 12.7609 9.86347 12.5878 9.5827 12.4596C9.18782 12.2891 8.77403 12.1571 8.34135 12.0635C7.90865 11.9699 7.46153 11.9231 7 11.9231C6.53847 11.9231 6.09135 11.9699 5.65865 12.0635C5.22597 12.1571 4.81218 12.2891 4.4173 12.4596C4.13653 12.5878 3.91346 12.7609 3.74808 12.9788C3.58269 13.1968 3.5 13.4609 3.5 13.7712V13.9231ZM12.3846 18H1.61537C1.15512 18 0.770833 17.8458 0.4625 17.5375C0.154167 17.2292 0 16.8449 0 16.3846V1.61537C0 1.15512 0.154167 0.770833 0.4625 0.4625C0.770833 0.154167 1.15512 0 1.61537 0H7.90578C8.12116 0 8.33045 0.0435921 8.53365 0.130775C8.73687 0.217942 8.91091 0.333966 9.05578 0.47885L13.5212 4.94422C13.666 5.08909 13.7821 5.26313 13.8692 5.46635C13.9564 5.66955 14 5.87884 14 6.09422V16.3846C14 16.8449 13.8458 17.2292 13.5375 17.5375C13.2292 17.8458 12.8449 18 12.3846 18ZM12.3846 17C12.5385 17 12.6795 16.9359 12.8077 16.8077C12.9359 16.6795 13 16.5385 13 16.3846V5.85L8.15 1H1.61537C1.46154 1 1.32052 1.0641 1.1923 1.1923C1.0641 1.32052 1 1.46154 1 1.61537V16.3846C1 16.5385 1.0641 16.6795 1.1923 16.8077C1.32052 16.9359 1.46154 17 1.61537 17H12.3846Z" fill="#163300"/>
</svg>
