<svg width="24" height="24" viewBox="0 0 24 24" fill="none" xmlns="http://www.w3.org/2000/svg">
<path d="M13.7966 20.8039C13.8607 20.8295 13.9184 20.8423 13.9697 20.8423C14.021 20.8423 14.0786 20.8295 14.1427 20.8039L19.9581 19.0115C19.9389 18.7077 19.8482 18.4888 19.6859 18.3548C19.5236 18.2208 19.34 18.1538 19.1351 18.1538H14.3904C13.9676 18.1538 13.5844 18.1372 13.2408 18.1039C12.8972 18.0705 12.5453 17.991 12.1851 17.8654L10.4716 17.3134C10.3348 17.2686 10.2366 17.1788 10.1767 17.0442C10.1169 16.9096 10.1094 16.7763 10.1543 16.6442C10.1992 16.5122 10.2847 16.4157 10.411 16.3548C10.5373 16.2939 10.6697 16.2859 10.8081 16.3308L12.3581 16.8923C12.6799 17.0013 13.036 17.0711 13.4264 17.1019C13.8168 17.1327 14.2997 17.15 14.8751 17.1538H15.1351C15.1351 16.8423 15.0777 16.5904 14.9629 16.3981C14.8482 16.2058 14.6838 16.0718 14.4697 15.9962L8.71582 13.8846C8.67737 13.8718 8.64212 13.8622 8.61007 13.8558C8.57802 13.8494 8.54276 13.8462 8.5043 13.8462H6.4043V18.6538L13.7966 20.8039ZM13.5408 21.7923L6.4043 19.7038C6.30943 20.0987 6.10783 20.4135 5.7995 20.6481C5.49116 20.8827 5.15431 21 4.78892 21H4.01967C3.57544 21 3.19515 20.8418 2.8788 20.5255C2.56246 20.2091 2.4043 19.8289 2.4043 19.3846V14.4615C2.4043 14.0173 2.56246 13.637 2.8788 13.3207C3.19515 13.0043 3.57544 12.8462 4.01967 12.8462H8.48215C8.57511 12.8462 8.67096 12.8567 8.76967 12.8779C8.86839 12.899 8.96006 12.9237 9.04467 12.9519L14.8235 15.0692C15.1812 15.2051 15.4892 15.4494 15.7476 15.8019C16.0059 16.1545 16.1351 16.6051 16.1351 17.1538H19.1351C19.7376 17.1538 20.1992 17.3423 20.5197 17.7192C20.8402 18.0961 21.0004 18.5744 21.0004 19.1539C21.0004 19.3538 20.9463 19.5228 20.8379 19.6606C20.7296 19.7984 20.5716 19.9019 20.3639 19.9712L14.4793 21.7866C14.3344 21.8276 14.1812 21.8513 14.0197 21.8577C13.8581 21.8641 13.6985 21.8423 13.5408 21.7923ZM3.4043 19.3846C3.4043 19.5641 3.46199 19.7115 3.57737 19.8269C3.69276 19.9423 3.84019 20 4.01967 20H4.78892C4.96841 20 5.11584 19.9519 5.23122 19.8558C5.34661 19.7596 5.4043 19.6026 5.4043 19.3846V13.8462H4.01967C3.84019 13.8462 3.69276 13.9038 3.57737 14.0192C3.46199 14.1346 3.4043 14.282 3.4043 14.4615V19.3846ZM15.6925 11.7577C15.4939 11.7577 15.2988 11.7215 15.107 11.6491C14.9152 11.5766 14.7399 11.4679 14.5812 11.3231L11.9274 8.77693C11.4876 8.35384 11.1206 7.88049 10.8264 7.35688C10.5322 6.83326 10.3851 6.26302 10.3851 5.64615C10.3851 4.9111 10.6423 4.28632 11.1568 3.7718C11.6714 3.25727 12.2962 3 13.0312 3C13.5774 3 14.0742 3.14775 14.5216 3.44325C14.969 3.73877 15.3594 4.09742 15.6927 4.51922C16.0261 4.09742 16.4165 3.73877 16.8639 3.44325C17.3114 3.14775 17.8081 3 18.3543 3C19.0893 3 19.7141 3.25727 20.2286 3.7718C20.7432 4.28632 21.0004 4.9111 21.0004 5.64615C21.0004 6.26302 20.8543 6.83326 20.562 7.35688C20.2697 7.88049 19.9037 8.35384 19.4639 8.77693L16.8043 11.3231C16.6455 11.4679 16.4701 11.5766 16.2782 11.6491C16.0863 11.7215 15.891 11.7577 15.6925 11.7577ZM16.1158 10.6038L18.687 8.14037C19.0421 7.79807 19.3498 7.41891 19.6101 7.00287C19.8703 6.58686 20.0004 6.13462 20.0004 5.64615C20.0004 5.18973 19.8402 4.80128 19.5197 4.48078C19.1992 4.16026 18.8107 4 18.3543 4C17.9543 4 17.5956 4.11955 17.2783 4.35865C16.961 4.59775 16.6761 4.87948 16.4235 5.20385L16.2562 5.40578C16.1116 5.58783 15.9248 5.67885 15.6958 5.67885C15.4669 5.67885 15.278 5.58783 15.1293 5.40578L14.962 5.20385C14.7094 4.87948 14.4245 4.59775 14.1072 4.35865C13.7899 4.11955 13.4312 4 13.0312 4C12.5748 4 12.1863 4.16026 11.8658 4.48078C11.5453 4.80128 11.3851 5.18973 11.3851 5.64615C11.3851 6.13462 11.5152 6.58686 11.7754 7.00287C12.0357 7.41891 12.3434 7.79807 12.6985 8.14037L15.2697 10.6038C15.3851 10.7192 15.5261 10.7769 15.6927 10.7769C15.8594 10.7769 16.0004 10.7192 16.1158 10.6038Z" fill="#163300"/>
</svg>
