<svg width="24" height="24" viewBox="0 0 24 24" fill="none" xmlns="http://www.w3.org/2000/svg">
<path d="M12 21C10.7577 21 9.58909 20.7631 8.49423 20.2894C7.39936 19.8157 6.44679 19.1737 5.63652 18.3635C4.82627 17.5532 4.18429 16.6006 3.71058 15.5058C3.23686 14.4109 3 13.2423 3 12C3 10.7577 3.23686 9.58909 3.71058 8.49422C4.18429 7.39936 4.82627 6.44679 5.63652 5.63652C6.44679 4.82627 7.39936 4.18429 8.49423 3.71057C9.58909 3.23686 10.7577 3 12 3C13.2423 3 14.4109 3.23686 15.5058 3.71057C16.6006 4.18429 17.5532 4.82627 18.3635 5.63652C19.1737 6.44679 19.8157 7.39936 20.2894 8.49422C20.7631 9.58909 21 10.7577 21 12C21 13.2423 20.7631 14.4109 20.2894 15.5058C19.8157 16.6006 19.1737 17.5532 18.3635 18.3635C17.5532 19.1737 16.6006 19.8157 15.5058 20.2894C14.4109 20.7631 13.2423 21 12 21ZM16.6538 10.0769L18.3885 9.51153L18.8654 7.81537C18.332 6.95127 17.6583 6.2157 16.8442 5.60865C16.0301 5.0016 15.1218 4.55641 14.1192 4.27307L12.5 5.41537V7.16153L16.6538 10.0769ZM7.34615 10.0769L11.5 7.16153V5.41537L9.88077 4.27307C8.87821 4.55641 7.97628 5.0016 7.175 5.60865C6.37372 6.2157 5.70641 6.95127 5.17308 7.81537L5.65 9.51153L7.34615 10.0769ZM6.02692 17.3539L7.6 17.2154L8.58077 15.5962L7.0923 11.0923L5.3077 10.4769L4 11.4192C4 12.5923 4.14359 13.6471 4.43078 14.5837C4.71796 15.5202 5.25001 16.4436 6.02692 17.3539ZM12 20C12.4333 20 12.8712 19.9635 13.3135 19.8904C13.7558 19.8173 14.2154 19.7077 14.6923 19.5616L15.5462 17.7154L14.6654 16.2692H9.33463L8.4923 17.7154L9.34615 19.5616C9.78462 19.7077 10.2282 19.8173 10.6769 19.8904C11.1256 19.9635 11.5667 20 12 20ZM9.5577 15.2692H14.4808L15.9577 10.8077L12 8.02693L8.05385 10.8077L9.5577 15.2692ZM17.9731 17.3539C18.75 16.4436 19.282 15.5202 19.5692 14.5837C19.8564 13.6471 20 12.5923 20 11.4192L18.7308 10.5269L16.9077 11.0539L15.4192 15.5962L16.4 17.2154L17.9731 17.3539Z" fill="#163300"/>
</svg>
