<svg width="24" height="24" viewBox="0 0 24 24" fill="none" xmlns="http://www.w3.org/2000/svg">
<path d="M19.3999 9.37504L18.7115 8.68657L19.1923 8.18082C19.3205 8.0526 19.3846 7.90837 19.3846 7.74812C19.3846 7.58787 19.3205 7.44363 19.1923 7.31542L16.6846 4.80772C16.5564 4.67952 16.4121 4.61542 16.2519 4.61542C16.0916 4.61542 15.9474 4.67952 15.8192 4.80772L15.3134 5.28849L14.5999 4.57504L15.1576 3.99234C15.4512 3.69876 15.8108 3.55613 16.2365 3.56447C16.6621 3.5728 17.0217 3.72376 17.3153 4.01734L19.9826 6.68464C20.2762 6.97824 20.423 7.33369 20.423 7.75099C20.423 8.16831 20.2762 8.52376 19.9826 8.81734L19.3999 9.37504ZM8.84224 19.9577C8.54866 20.2513 8.19321 20.3981 7.77589 20.3981C7.35859 20.3981 7.00314 20.2513 6.70954 19.9577L4.11917 17.3674C3.81275 17.0609 3.65954 16.6799 3.65954 16.2241C3.65954 15.7683 3.81275 15.3872 4.11917 15.0808L4.59994 14.6L5.31339 15.3135L4.82687 15.7943C4.69865 15.9225 4.63454 16.0667 4.63454 16.227C4.63454 16.3872 4.69865 16.5315 4.82687 16.6597L7.34032 19.1731C7.46853 19.3013 7.61277 19.3654 7.77302 19.3654C7.93327 19.3654 8.0775 19.3013 8.20572 19.1731L8.68647 18.6866L9.39994 19.4L8.84224 19.9577ZM18.5749 13.1539L19.7115 12.0173C19.8397 11.8891 19.9038 11.7417 19.9038 11.575C19.9038 11.4084 19.8397 11.2609 19.7115 11.1327L12.8672 4.28849C12.739 4.16029 12.5916 4.09619 12.4249 4.09619C12.2583 4.09619 12.1108 4.16029 11.9826 4.28849L10.8461 5.42504C10.7179 5.55324 10.6538 5.69747 10.6538 5.85774C10.6538 6.01799 10.7179 6.16222 10.8461 6.29042L17.7096 13.1539C17.8378 13.2821 17.982 13.3462 18.1422 13.3462C18.3025 13.3462 18.4467 13.2821 18.5749 13.1539ZM12.0172 19.7116L13.1538 18.5693C13.282 18.4411 13.3461 18.2968 13.3461 18.1366C13.3461 17.9763 13.282 17.8321 13.1538 17.7039L6.29609 10.8462C6.16789 10.718 6.02366 10.6539 5.86339 10.6539C5.70314 10.6539 5.55892 10.718 5.43072 10.8462L4.28839 11.9827C4.16019 12.1109 4.09609 12.2584 4.09609 12.425C4.09609 12.5917 4.16019 12.7391 4.28839 12.8673L11.1326 19.7116C11.2608 19.8398 11.4083 19.9039 11.5749 19.9039C11.7416 19.9039 11.889 19.8398 12.0172 19.7116ZM11.3096 14.4385L14.4442 11.3097L12.6903 9.55582L9.56149 12.6904L11.3096 14.4385ZM12.7115 20.4193C12.4051 20.7257 12.0262 20.8789 11.5749 20.8789C11.1237 20.8789 10.7448 20.7257 10.4384 20.4193L3.58072 13.5616C3.2743 13.2552 3.12109 12.8763 3.12109 12.425C3.12109 11.9738 3.2743 11.5949 3.58072 11.2885L4.71724 10.1327C5.02366 9.82632 5.40475 9.67312 5.86052 9.67312C6.31629 9.67312 6.69738 9.82632 7.00379 10.1327L8.84802 11.977L11.9826 8.84234L10.1384 7.00389C9.83199 6.69747 9.67879 6.31542 9.67879 5.85774C9.67879 5.40004 9.83199 5.01798 10.1384 4.71157L11.2942 3.55582C11.6006 3.2494 11.9817 3.09619 12.4374 3.09619C12.8932 3.09619 13.2743 3.2494 13.5807 3.55582L20.4442 10.4193C20.7506 10.7257 20.9038 11.1068 20.9038 11.5625C20.9038 12.0183 20.7506 12.3994 20.4442 12.7058L19.2884 13.8616C18.982 14.168 18.5999 14.3212 18.1422 14.3212C17.6846 14.3212 17.3025 14.168 16.9961 13.8616L15.1576 12.0174L12.023 15.152L13.8672 16.9962C14.1737 17.3026 14.3269 17.6837 14.3269 18.1395C14.3269 18.5952 14.1737 18.9763 13.8672 19.2827L12.7115 20.4193Z" fill="#163300"/>
</svg>
