<svg width="42" height="42" viewBox="0 0 42 42" fill="none" xmlns="http://www.w3.org/2000/svg">
<path d="M15.4872 29.4437L20.9997 26.1187L26.5122 29.4874L25.0684 23.1874L29.9247 18.9874L23.5372 18.4187L20.9997 12.4687L18.4622 18.3749L12.0747 18.9437L16.9309 23.1874L15.4872 29.4437ZM20.9997 28.1783L14.6458 32.0149C14.4596 32.1068 14.2869 32.1439 14.1276 32.1259C13.9683 32.108 13.8135 32.053 13.6631 31.961C13.5128 31.869 13.3984 31.7372 13.3199 31.5656C13.2413 31.394 13.2346 31.2083 13.2997 31.0086L14.9891 23.8168L9.39921 18.9672C9.24215 18.8394 9.13837 18.6862 9.08788 18.5079C9.03743 18.3295 9.04809 18.1584 9.11986 17.9947C9.19167 17.8309 9.28816 17.6974 9.40931 17.5942C9.53044 17.491 9.69422 17.4214 9.90063 17.3855L17.2776 16.7427L20.155 9.9312C20.2335 9.73823 20.3474 9.59912 20.4966 9.51387C20.6458 9.42861 20.8135 9.38599 20.9997 9.38599C21.1859 9.38599 21.3536 9.42861 21.5028 9.51387C21.652 9.59912 21.7659 9.73823 21.8444 9.9312L24.7218 16.7427L32.0988 17.3855C32.3052 17.4214 32.4689 17.491 32.5901 17.5942C32.7112 17.6974 32.8077 17.8309 32.8795 17.9947C32.9513 18.1584 32.962 18.3295 32.9115 18.5079C32.861 18.6862 32.7572 18.8394 32.6002 18.9672L27.0103 23.8168L28.6997 31.0086C28.7648 31.2083 28.758 31.394 28.6795 31.5656C28.601 31.7372 28.4866 31.869 28.3363 31.961C28.1859 32.053 28.0311 32.108 27.8718 32.1259C27.7125 32.1439 27.5398 32.1068 27.3536 32.0149L20.9997 28.1783Z" fill="#FFBB00"/>
</svg>
