<svg width="24" height="24" viewBox="0 0 24 24" fill="none" xmlns="http://www.w3.org/2000/svg">
<path d="M3.98047 16C3.98047 15.3056 4.22352 14.7153 4.70962 14.2292C5.19574 13.7431 5.78602 13.5 6.48047 13.5H8.48047C9.45268 13.5 10.2791 13.1597 10.9596 12.4792C11.6402 11.7986 11.9805 10.9722 11.9805 10C11.9805 9.58847 11.8334 9.23558 11.5391 8.94135C11.2449 8.64712 10.892 8.5 10.4805 8.5C10.0587 8.5 9.70322 8.35545 9.41412 8.06635C9.12502 7.77725 8.98047 7.4218 8.98047 7V3C8.98047 2.85833 9.03023 2.73958 9.12974 2.64375C9.22926 2.54792 9.35258 2.5 9.49969 2.5C9.64136 2.5 9.76011 2.54792 9.85594 2.64375C9.95178 2.73958 9.99969 2.85833 9.99969 3V7C9.99969 7.14102 10.0446 7.25961 10.1343 7.35578C10.2241 7.45193 10.3394 7.5 10.4805 7.5C11.1749 7.5 11.7652 7.74306 12.2513 8.22918C12.7374 8.71527 12.9805 9.30555 12.9805 10C12.9805 11.245 12.5417 12.3063 11.6642 13.1838C10.7867 14.0613 9.72547 14.5 8.48047 14.5H6.48047C6.06892 14.5 5.71604 14.6471 5.42182 14.9413C5.12759 15.2356 4.98047 15.5885 4.98047 16V21C4.98047 21.1417 4.93249 21.2604 4.83652 21.3563C4.74055 21.4521 4.62164 21.5 4.47979 21.5C4.33793 21.5 4.21924 21.4521 4.12372 21.3563C4.02822 21.2604 3.98047 21.1417 3.98047 21V16ZM6.99969 20C6.99969 19.3055 7.24275 18.7153 7.72887 18.2292C8.21497 17.7431 8.80524 17.5 9.49969 17.5H13.4997C15.0214 17.5 16.3184 16.9638 17.3909 15.8913C18.4634 14.8188 18.9997 13.5217 18.9997 12V11C18.9997 9.5141 18.5186 8.22596 17.5564 7.13557C16.5942 6.04519 15.3894 5.5 13.942 5.5C13.4079 5.5 12.9506 5.30738 12.5702 4.92213C12.1899 4.53686 11.9997 4.08205 11.9997 3.5577V3C11.9997 2.85833 12.0477 2.73958 12.1436 2.64375C12.2396 2.54792 12.3585 2.5 12.5004 2.5C12.6422 2.5 12.7609 2.54792 12.8564 2.64375C12.9519 2.73958 12.9997 2.85833 12.9997 3V3.5577C12.9997 3.8141 13.0926 4.03525 13.2785 4.22115C13.4644 4.40705 13.6856 4.5 13.942 4.5C15.674 4.5 17.1167 5.14071 18.2699 6.42213C19.4231 7.70353 19.9997 9.22948 19.9997 11V12C19.9997 13.8107 19.369 15.3467 18.1077 16.6081C16.8464 17.8694 15.3104 18.5 13.4997 18.5H9.49969C9.08816 18.5 8.73528 18.6471 8.44104 18.9414C8.14681 19.2356 7.99969 19.5885 7.99969 20V21C7.99969 21.1417 7.95171 21.2604 7.85574 21.3563C7.75979 21.4521 7.64088 21.5 7.49902 21.5C7.35717 21.5 7.23848 21.4521 7.14297 21.3563C7.04745 21.2604 6.99969 21.1417 6.99969 21V20Z" fill="black"/>
</svg>
