<svg width="24" height="24" viewBox="0 0 24 24" fill="none" xmlns="http://www.w3.org/2000/svg">
<path d="M16 21C14.6154 21 13.4359 20.5128 12.4615 19.5385C11.4872 18.5641 11 17.3846 11 16C11 14.6154 11.4872 13.4359 12.4615 12.4615C13.4359 11.4872 14.6154 11 16 11C17.3846 11 18.5641 11.4872 19.5385 12.4615C20.5128 13.4359 21 14.6154 21 16C21 17.3846 20.5128 18.5641 19.5385 19.5385C18.5641 20.5128 17.3846 21 16 21ZM16 20C17.1 20 18.0417 19.6083 18.825 18.825C19.6083 18.0417 20 17.1 20 16C20 14.9 19.6083 13.9583 18.825 13.175C18.0417 12.3917 17.1 12 16 12C14.9 12 13.9583 12.3917 13.175 13.175C12.3917 13.9583 12 14.9 12 16C12 17.1 12.3917 18.0417 13.175 18.825C13.9583 19.6083 14.9 20 16 20ZM4.61538 19C4.15513 19 3.77083 18.8458 3.4625 18.5375C3.15417 18.2292 3 17.8449 3 17.3846V10.5154C3 10.382 3.02532 10.2295 3.07595 10.0577C3.1266 9.8859 3.17692 9.73333 3.22692 9.6L5.45768 4.61537H4.65385C4.43462 4.61537 4.26443 4.5548 4.14328 4.43365C4.02211 4.3125 3.96152 4.14231 3.96152 3.92307V3.6923C3.96152 3.47307 4.02211 3.30287 4.14328 3.18172C4.26443 3.06057 4.43462 3 4.65385 3H10.3462C10.5654 3 10.7356 3.06057 10.8567 3.18172C10.9779 3.30287 11.0385 3.47307 11.0385 3.6923V3.92307C11.0385 4.14231 10.9779 4.3125 10.8567 4.43365C10.7356 4.5548 10.5654 4.61537 10.3462 4.61537H9.54233L12.0385 10.2615C11.9013 10.3385 11.7647 10.4301 11.6288 10.5365C11.4929 10.6429 11.3577 10.7615 11.2231 10.8923L8.46923 4.61537H6.53077L4 10.3423V17.3846C4 17.5641 4.05769 17.7115 4.17308 17.8269C4.28846 17.9423 4.43589 18 4.61538 18H9.28845C9.33333 18.1833 9.39135 18.3593 9.4625 18.5279C9.53365 18.6965 9.61153 18.8539 9.69615 19H4.61538ZM16 9.61538C15.5692 9.49999 15.2115 9.26794 14.9269 8.91922C14.6423 8.57051 14.5 8.16153 14.5 7.6923C14.5 7.22307 14.6423 6.81409 14.9269 6.46537C15.2115 6.11666 15.5692 5.88461 16 5.76922V9.61538C16.1154 9.18461 16.3474 8.82692 16.6962 8.5423C17.0449 8.25768 17.4538 8.11538 17.9231 8.11538C18.3923 8.11538 18.8013 8.25768 19.15 8.5423C19.4987 8.82692 19.7308 9.18461 19.8462 9.61538H16Z" fill="#163300"/>
</svg>
