<svg width="190" height="44" viewBox="0 0 190 44" fill="none" xmlns="http://www.w3.org/2000/svg">
<path d="M8.208 8.67538C8.208 9.5224 8.496 10.2484 9.072 10.8534C9.648 11.4342 10.62 11.9304 11.988 12.3418C12.06 12.3902 12.048 12.487 11.952 12.6322C11.88 12.7532 11.772 12.8984 11.628 13.0678C11.484 13.213 11.328 13.3461 11.16 13.4671C10.992 13.5881 10.86 13.6607 10.764 13.6849C8.1 13.5639 6.036 14.1447 4.572 15.4273C3.132 16.6858 2.412 18.5613 2.412 21.054C2.412 21.901 2.532 22.6875 2.772 23.4135C3.036 24.1395 3.396 24.7687 3.852 25.3012C4.332 25.8336 4.896 26.2571 5.544 26.5717C6.216 26.8621 6.972 27.0073 7.812 27.0073C9.78 27.0073 11.388 26.5475 12.636 25.6279C13.884 24.7082 14.784 23.2199 15.336 21.1629C15.408 21.0419 15.48 21.0056 15.552 21.054C15.648 21.1024 15.708 21.1992 15.732 21.3444C15.444 22.6996 15.096 23.8249 14.688 24.7203C14.304 25.6158 13.944 26.1361 13.608 26.2813C12.6 26.7411 11.58 27.092 10.548 27.334C9.516 27.5518 8.304 27.6607 6.912 27.6607C4.656 27.6607 2.94 27.1646 1.764 26.1724C0.588 25.156 0 23.7402 0 21.9252C0 20.7636 0.228 19.6987 0.684 18.7307C1.14 17.7385 1.764 16.8552 2.556 16.0808C3.372 15.3063 4.332 14.6529 5.436 14.1205C6.54 13.5881 7.752 13.2009 9.072 12.9589C8.16 12.5717 7.428 12.0514 6.876 11.3979C6.324 10.7445 6.048 9.99431 6.048 9.14729C6.048 8.49388 6.204 7.87676 6.516 7.29595C6.852 6.69093 7.332 6.17062 7.956 5.73501C8.58 5.2994 9.348 4.94849 10.26 4.68229C11.172 4.41608 12.216 4.28298 13.392 4.28298C14.04 4.28298 14.652 4.34348 15.228 4.46448C15.804 4.58549 16.308 4.74279 16.74 4.93639C17.196 5.13 17.544 5.3599 17.784 5.62611C18.048 5.86812 18.18 6.11012 18.18 6.35213C18.18 6.54573 18.132 6.78774 18.036 7.07814C17.964 7.36855 17.856 7.65896 17.712 7.94936C17.592 8.23977 17.46 8.51808 17.316 8.78428C17.196 9.02629 17.1 9.19569 17.028 9.29249C16.956 9.34089 16.884 9.34089 16.812 9.29249C16.74 9.24409 16.716 9.17149 16.74 9.07469C16.884 8.80848 16.98 8.51808 17.028 8.20347C17.076 7.88886 17.028 7.56215 16.884 7.22335C16.596 6.61833 16.056 6.11012 15.264 5.69871C14.496 5.2631 13.584 5.0453 12.528 5.0453C11.088 5.0453 10.008 5.3841 9.288 6.06172C8.568 6.71514 8.208 7.58636 8.208 8.67538Z" fill="#163300"/>
<path d="M30.265 20.0375C30.265 19.5293 30.085 19.2752 29.725 19.2752C29.005 19.2752 28.153 19.9528 27.169 21.3081C26.185 22.6391 25.273 24.5509 24.433 27.0436C24.385 27.1888 24.181 27.334 23.821 27.4792C23.485 27.6002 23.161 27.6607 22.849 27.6607C22.561 27.6607 22.453 27.5518 22.525 27.334C22.669 26.8984 22.861 26.3539 23.101 25.7005C23.365 25.0471 23.605 24.3815 23.821 23.7039C24.061 23.0021 24.265 22.3487 24.433 21.7437C24.601 21.1145 24.685 20.6305 24.685 20.2916C24.685 19.6382 24.481 19.3115 24.073 19.3115C23.449 19.3115 22.657 19.9649 21.697 21.2718C20.761 22.5544 19.849 24.4783 18.961 27.0436C18.913 27.1888 18.721 27.334 18.385 27.4792C18.049 27.6002 17.749 27.6607 17.485 27.6607C17.365 27.6607 17.269 27.6365 17.197 27.5881C17.125 27.5397 17.113 27.455 17.161 27.334C17.353 26.8016 17.557 26.2208 17.773 25.5916C17.989 24.9382 18.205 24.2847 18.421 23.6313C18.637 22.9779 18.829 22.3366 18.997 21.7074C19.189 21.0782 19.357 20.4853 19.501 19.9286C19.573 19.493 19.501 19.2752 19.285 19.2752C19.093 19.2752 18.865 19.4083 18.601 19.6745C18.337 19.9407 18.073 20.2553 17.809 20.6184C17.737 20.6668 17.665 20.6668 17.593 20.6184C17.521 20.5458 17.509 20.4732 17.557 20.4005C17.917 19.8439 18.349 19.372 18.853 18.9848C19.357 18.5734 19.897 18.3677 20.473 18.3677C20.857 18.3677 21.109 18.4887 21.229 18.7307C21.373 18.9727 21.409 19.2631 21.337 19.6019C21.241 20.1343 21.145 20.5821 21.049 20.9451C20.953 21.3081 20.821 21.7195 20.653 22.1793C21.277 21.0661 21.961 20.1585 22.705 19.4567C23.473 18.7307 24.289 18.3677 25.153 18.3677C25.585 18.3677 25.909 18.4887 26.125 18.7307C26.365 18.9727 26.485 19.2631 26.485 19.6019C26.485 20.5458 26.317 21.5017 25.981 22.4697C26.749 21.1387 27.493 20.1222 28.213 19.4204C28.957 18.7186 29.845 18.3677 30.877 18.3677C31.357 18.3677 31.693 18.5008 31.885 18.767C32.101 19.009 32.209 19.2631 32.209 19.5293C32.209 19.9407 32.113 20.4005 31.921 20.9088C31.753 21.3928 31.549 21.9131 31.309 22.4697C31.093 23.0021 30.889 23.5466 30.697 24.1032C30.529 24.6356 30.445 25.156 30.445 25.6642C30.445 26.2692 30.637 26.5717 31.021 26.5717C31.405 26.5717 31.921 26.1724 32.569 25.3738C32.641 25.3254 32.701 25.3375 32.749 25.4101C32.821 25.4827 32.833 25.5674 32.785 25.6642C32.305 26.2692 31.813 26.7532 31.309 27.1162C30.805 27.4792 30.313 27.6607 29.833 27.6607C29.041 27.6607 28.645 27.2009 28.645 26.2813C28.645 25.7005 28.729 25.1197 28.897 24.5388C29.065 23.9338 29.245 23.3651 29.437 22.8327C29.653 22.2761 29.845 21.7558 30.013 21.2718C30.181 20.7878 30.265 20.3763 30.265 20.0375Z" fill="#163300"/>
<path d="M43.8699 25.3738C43.9179 25.3254 43.9779 25.3254 44.0499 25.3738C44.1219 25.4222 44.1459 25.4948 44.1219 25.5916C43.6899 26.2208 43.2099 26.729 42.6819 27.1162C42.1539 27.4792 41.6499 27.6607 41.1699 27.6607C40.6179 27.6607 40.2579 27.2735 40.0899 26.4991C39.9459 25.7005 40.0299 24.7566 40.3419 23.6676C39.6939 24.7082 38.9859 25.6037 38.2179 26.3539C37.4739 27.0799 36.6819 27.5155 35.8419 27.6607C35.2659 27.6607 34.8219 27.3945 34.5099 26.8621C34.1979 26.3297 34.0419 25.7126 34.0419 25.0108C34.0419 24.2121 34.2339 23.4256 34.6179 22.6512C35.0019 21.8526 35.5059 21.1387 36.1299 20.5095C36.7779 19.8802 37.4859 19.372 38.2539 18.9848C39.0459 18.5734 39.8379 18.3677 40.6299 18.3677C41.4699 18.3677 42.1299 18.5734 42.6099 18.9848C42.8499 18.8154 43.1499 18.6702 43.5099 18.5492C43.8939 18.4282 44.2299 18.3677 44.5179 18.3677C44.6139 18.3677 44.6619 18.4282 44.6619 18.5492C44.1099 19.2268 43.6299 19.977 43.2219 20.7999C42.8379 21.5985 42.5379 22.3729 42.3219 23.1231C42.1059 23.8491 41.9739 24.5025 41.9259 25.0834C41.8779 25.6642 41.9259 26.0635 42.0699 26.2813C42.1899 26.4265 42.3939 26.4749 42.6819 26.4265C42.9699 26.3539 43.3659 26.003 43.8699 25.3738ZM36.9579 26.3176C37.2459 26.3176 37.5939 26.1361 38.0019 25.7731C38.4339 25.4101 38.8779 24.9261 39.3339 24.321C39.7899 23.716 40.2339 23.0384 40.6659 22.2882C41.1219 21.538 41.5179 20.7757 41.8539 20.0012C41.7579 19.6866 41.5299 19.4325 41.1699 19.2389C40.8339 19.0453 40.4379 18.9485 39.9819 18.9485C39.4299 18.9485 38.9139 19.0937 38.4339 19.3841C37.9539 19.6503 37.5339 20.0375 37.1739 20.5458C36.8379 21.0298 36.5619 21.6227 36.3459 22.3245C36.1539 23.0021 36.0579 23.7523 36.0579 24.5751C36.0579 25.1076 36.1419 25.5311 36.3099 25.8457C36.5019 26.1603 36.7179 26.3176 36.9579 26.3176Z" fill="#163300"/>
<path d="M47.3673 27.6607C46.3593 27.6607 45.8553 27.1041 45.8553 25.9909C45.8553 25.6037 45.8913 25.156 45.9633 24.6477C46.0593 24.1395 46.1913 23.6192 46.3593 23.0868C46.5513 22.5302 46.7673 21.9736 47.0073 21.417C47.2473 20.8604 47.5353 20.3279 47.8713 19.8197C47.6073 19.9891 47.3553 20.1706 47.1153 20.3642C46.8753 20.5337 46.6593 20.7152 46.4673 20.9088C46.3953 20.9572 46.3233 20.9451 46.2513 20.8725C46.2033 20.7757 46.2033 20.691 46.2513 20.6184C46.6593 20.1827 47.2353 19.735 47.9793 19.2752C48.7473 18.8154 49.4793 18.4524 50.1753 18.1862C50.2953 18.1862 50.3793 18.2225 50.4273 18.2951C50.4993 18.3435 50.5113 18.4161 50.4633 18.5129C49.6953 19.5293 49.0713 20.6305 48.5913 21.8163C48.1353 23.0021 47.9073 24.1516 47.9073 25.2649C47.9073 25.9667 48.1233 26.3176 48.5553 26.3176C48.8673 26.3176 49.2513 26.1119 49.7073 25.7005C50.1633 25.2649 50.6433 24.7082 51.1473 24.0306C51.6513 23.3288 52.1553 22.5423 52.6593 21.6711C53.1873 20.7999 53.6673 19.9165 54.0993 19.0211C54.1713 18.8759 54.3753 18.7307 54.7113 18.5855C55.0713 18.4403 55.4313 18.3677 55.7913 18.3677C56.1513 18.3677 56.2593 18.4645 56.1153 18.6581C55.7793 19.2873 55.4793 19.8802 55.2153 20.4368C54.9753 20.9693 54.7713 21.5017 54.6033 22.0341C54.4353 22.5665 54.3033 23.111 54.2073 23.6676C54.1353 24.2 54.0993 24.7929 54.0993 25.4464C54.0993 26.2208 54.3033 26.608 54.7113 26.608C55.1193 26.608 55.5753 26.245 56.0793 25.519C56.1513 25.4706 56.2233 25.4706 56.2953 25.519C56.3673 25.5674 56.3913 25.64 56.3673 25.7368C55.9593 26.366 55.5033 26.85 54.9993 27.1888C54.5193 27.5034 54.0753 27.6607 53.6673 27.6607C52.6593 27.6607 52.1553 27.0678 52.1553 25.882C52.1553 24.6477 52.3713 23.4256 52.8033 22.2156C51.8913 23.8854 50.9313 25.2165 49.9233 26.2087C48.9153 27.1767 48.0633 27.6607 47.3673 27.6607Z" fill="#163300"/>
<path d="M65.1884 20.1827C65.1884 21.5622 63.3764 22.506 59.7524 23.0142C59.7284 23.2562 59.7044 23.4982 59.6804 23.7402C59.6804 23.9822 59.6804 24.2363 59.6804 24.5025C59.6804 25.1318 59.8244 25.6158 60.1124 25.9546C60.4004 26.2934 60.8564 26.4628 61.4804 26.4628C61.9364 26.4628 62.4044 26.3297 62.8844 26.0635C63.3644 25.7973 63.7484 25.4585 64.0364 25.0471C64.1324 24.9987 64.2044 25.0229 64.2524 25.1197C64.3004 25.1923 64.3124 25.277 64.2884 25.3738C63.8084 26.003 63.1964 26.5475 62.4524 27.0073C61.7324 27.4429 60.9524 27.6607 60.1124 27.6607C59.2724 27.6607 58.6604 27.455 58.2764 27.0436C57.9164 26.608 57.7364 26.003 57.7364 25.2286C57.7364 24.4783 57.8924 23.7039 58.2044 22.9053C58.5164 22.0825 58.9124 21.3323 59.3924 20.6547C59.8964 19.977 60.4604 19.4325 61.0844 19.0211C61.7324 18.5855 62.3804 18.3677 63.0284 18.3677C63.6764 18.3677 64.1924 18.5613 64.5764 18.9485C64.9844 19.3115 65.1884 19.7229 65.1884 20.1827ZM62.0564 19.3115C61.5044 19.3115 61.0244 19.5777 60.6164 20.1101C60.2324 20.6184 59.9684 21.417 59.8244 22.506C60.9764 22.385 61.8284 22.1672 62.3804 21.8526C62.9324 21.5138 63.2084 21.1024 63.2084 20.6184C63.2084 20.2553 63.1004 19.9528 62.8844 19.7108C62.6684 19.4446 62.3924 19.3115 62.0564 19.3115Z" fill="#163300"/>
<path d="M81.6874 0.689196C82.0474 0.689196 82.3354 0.785999 82.5514 0.979604C82.7914 1.14901 82.9474 1.39101 83.0194 1.70562C83.1154 1.99603 83.1274 2.33483 83.0554 2.72204C83.0074 3.10925 82.8754 3.49646 82.6594 3.88367C82.6114 3.93207 82.5514 3.93207 82.4794 3.88367C82.4074 3.83527 82.3594 3.77477 82.3354 3.70217C82.3834 3.41176 82.2754 3.16975 82.0114 2.97615C81.7714 2.78254 81.3874 2.68574 80.8594 2.68574C79.8754 2.68574 78.8794 3.06085 77.8714 3.81107C76.8874 4.53709 75.9274 5.50511 74.9914 6.71514C74.0554 7.92516 73.1794 9.3167 72.3634 10.8897C71.5474 12.4628 70.8394 14.0842 70.2394 15.754C69.6394 17.4239 69.1594 19.0816 68.7994 20.7273C68.4634 22.3729 68.2954 23.8733 68.2954 25.2286C68.2954 25.9546 68.4994 26.3176 68.9074 26.3176C69.1954 26.3176 69.4714 26.1966 69.7354 25.9546C70.0234 25.7126 70.3474 25.3496 70.7074 24.8656C70.7794 24.8172 70.8394 24.8293 70.8874 24.9019C70.9594 24.9503 70.9834 25.0229 70.9594 25.1197C70.4794 25.8457 69.9154 26.4507 69.2674 26.9347C68.6194 27.4187 68.0314 27.6607 67.5034 27.6607C67.0474 27.6607 66.7234 27.5276 66.5314 27.2614C66.3634 26.9952 66.2794 26.6564 66.2794 26.245C66.2794 25.1076 66.5194 23.6918 66.9994 21.9978C67.4794 20.2795 68.1154 18.4766 68.9074 16.589C69.7234 14.6771 70.6594 12.7774 71.7154 10.8897C72.7714 9.00209 73.8634 7.30805 74.9914 5.80761C76.1434 4.28298 77.2954 3.04875 78.4474 2.10493C79.5994 1.16111 80.6794 0.689196 81.6874 0.689196Z" fill="#163300"/>
<path d="M81.5574 25.3738C81.6054 25.3254 81.6654 25.3254 81.7374 25.3738C81.8094 25.4222 81.8334 25.4948 81.8094 25.5916C81.3774 26.2208 80.8974 26.729 80.3694 27.1162C79.8414 27.4792 79.3374 27.6607 78.8574 27.6607C78.3054 27.6607 77.9454 27.2735 77.7774 26.4991C77.6334 25.7005 77.7174 24.7566 78.0294 23.6676C77.3814 24.7082 76.6734 25.6037 75.9054 26.3539C75.1614 27.0799 74.3694 27.5155 73.5294 27.6607C72.9534 27.6607 72.5094 27.3945 72.1974 26.8621C71.8854 26.3297 71.7294 25.7126 71.7294 25.0108C71.7294 24.2121 71.9214 23.4256 72.3054 22.6512C72.6894 21.8526 73.1934 21.1387 73.8174 20.5095C74.4654 19.8802 75.1734 19.372 75.9414 18.9848C76.7334 18.5734 77.5254 18.3677 78.3174 18.3677C79.1574 18.3677 79.8174 18.5734 80.2974 18.9848C80.5374 18.8154 80.8374 18.6702 81.1974 18.5492C81.5814 18.4282 81.9174 18.3677 82.2054 18.3677C82.3014 18.3677 82.3494 18.4282 82.3494 18.5492C81.7974 19.2268 81.3174 19.977 80.9094 20.7999C80.5254 21.5985 80.2254 22.3729 80.0094 23.1231C79.7934 23.8491 79.6614 24.5025 79.6134 25.0834C79.5654 25.6642 79.6134 26.0635 79.7574 26.2813C79.8774 26.4265 80.0814 26.4749 80.3694 26.4265C80.6574 26.3539 81.0534 26.003 81.5574 25.3738ZM74.6454 26.3176C74.9334 26.3176 75.2814 26.1361 75.6894 25.7731C76.1214 25.4101 76.5654 24.9261 77.0214 24.321C77.4774 23.716 77.9214 23.0384 78.3534 22.2882C78.8094 21.538 79.2054 20.7757 79.5414 20.0012C79.4454 19.6866 79.2174 19.4325 78.8574 19.2389C78.5214 19.0453 78.1254 18.9485 77.6694 18.9485C77.1174 18.9485 76.6014 19.0937 76.1214 19.3841C75.6414 19.6503 75.2214 20.0375 74.8614 20.5458C74.5254 21.0298 74.2494 21.6227 74.0334 22.3245C73.8414 23.0021 73.7454 23.7523 73.7454 24.5751C73.7454 25.1076 73.8294 25.5311 73.9974 25.8457C74.1894 26.1603 74.4054 26.3176 74.6454 26.3176Z" fill="#163300"/>
<path d="M118.477 5.51721C118.573 5.58981 118.585 5.71081 118.513 5.88022C118.441 6.02542 118.321 6.18272 118.153 6.35213C118.009 6.49733 117.829 6.63043 117.613 6.75144C117.397 6.87244 117.205 6.93294 117.037 6.93294C116.461 6.88454 115.873 6.82404 115.273 6.75144C114.697 6.67883 114.121 6.59413 113.545 6.49733C113.041 6.64253 112.597 6.86034 112.213 7.15075C111.853 7.41695 111.517 7.77996 111.205 8.23977C110.917 8.69958 110.641 9.28039 110.377 9.98221C110.137 10.6598 109.885 11.4947 109.621 12.487C109.453 13.0436 109.297 13.5881 109.153 14.1205C109.009 14.6529 108.841 15.1611 108.649 15.6451H112.357C112.477 15.6935 112.513 15.754 112.465 15.8266C112.441 15.875 112.333 15.9234 112.141 15.9718C111.517 15.996 110.905 16.0202 110.305 16.0444C109.705 16.0444 109.105 16.0565 108.505 16.0808C107.065 20.0738 105.229 23.0021 102.997 24.8656C100.789 26.729 98.1368 27.6607 95.0408 27.6607C93.3128 27.6607 91.9688 27.2493 91.0088 26.4265C90.0728 25.6037 89.6048 24.4662 89.6048 23.0142C89.6048 22.1672 89.8448 21.3807 90.3248 20.6547C90.8288 19.9286 91.5368 19.3599 92.4488 18.9485C92.5448 18.9485 92.6168 18.9969 92.6648 19.0937C92.7128 19.1663 92.7128 19.2389 92.6648 19.3115C92.2328 19.6503 91.9088 20.0254 91.6928 20.4368C91.5008 20.8241 91.4048 21.3686 91.4048 22.0704C91.4048 22.6996 91.5128 23.2804 91.7288 23.8128C91.9448 24.321 92.2808 24.7808 92.7368 25.1923C93.1928 25.5795 93.7808 25.882 94.5008 26.0998C95.2208 26.3176 96.0848 26.4265 97.0928 26.4265C98.2448 26.4265 99.2528 26.2813 100.117 25.9909C101.005 25.7005 101.809 25.1802 102.529 24.4299C103.249 23.6555 103.921 22.6028 104.545 21.2718C105.169 19.9407 105.805 18.2346 106.453 16.1534C105.229 16.2018 104.041 16.2744 102.889 16.3712C101.737 16.468 100.609 16.6011 99.5048 16.7705C99.4328 16.7463 99.4448 16.6979 99.5408 16.6253C99.6368 16.5285 99.7688 16.4317 99.9368 16.3349C100.129 16.2381 100.333 16.1534 100.549 16.0808C100.765 15.9839 100.933 15.9234 101.053 15.8992C102.853 15.8024 104.701 15.7298 106.597 15.6814C106.717 15.2942 106.837 14.8949 106.957 14.4835C107.077 14.0721 107.197 13.6486 107.317 13.213C107.845 11.2527 108.517 9.7523 109.333 8.71168C110.149 7.64686 111.265 6.86034 112.681 6.35213C111.385 6.15852 110.137 5.98912 108.937 5.84391C107.761 5.67451 106.633 5.58981 105.553 5.58981C103.753 5.58981 102.265 5.94072 101.089 6.64253C99.9128 7.32015 99.0488 8.49388 98.4968 10.1637C98.4248 10.2363 98.3528 10.2484 98.2808 10.2C98.2088 10.1516 98.1728 10.0669 98.1728 9.94591C98.7008 8.22767 99.7328 6.84824 101.269 5.80761C102.829 4.76699 104.749 4.24668 107.029 4.24668C107.917 4.24668 108.805 4.29508 109.693 4.39188C110.605 4.48868 111.529 4.60969 112.465 4.75489C113.401 4.87589 114.361 5.009 115.345 5.1542C116.353 5.2994 117.397 5.42041 118.477 5.51721Z" fill="#163300"/>
<path d="M119.54 20.1827C119.54 21.5622 117.728 22.506 114.104 23.0142C114.08 23.2562 114.056 23.4982 114.032 23.7402C114.032 23.9822 114.032 24.2363 114.032 24.5025C114.032 25.1318 114.176 25.6158 114.464 25.9546C114.752 26.2934 115.208 26.4628 115.832 26.4628C116.288 26.4628 116.756 26.3297 117.236 26.0635C117.716 25.7973 118.1 25.4585 118.388 25.0471C118.484 24.9987 118.556 25.0229 118.604 25.1197C118.652 25.1923 118.664 25.277 118.64 25.3738C118.16 26.003 117.548 26.5475 116.804 27.0073C116.084 27.4429 115.304 27.6607 114.464 27.6607C113.624 27.6607 113.012 27.455 112.628 27.0436C112.268 26.608 112.088 26.003 112.088 25.2286C112.088 24.4783 112.244 23.7039 112.556 22.9053C112.868 22.0825 113.264 21.3323 113.744 20.6547C114.248 19.977 114.812 19.4325 115.436 19.0211C116.084 18.5855 116.732 18.3677 117.38 18.3677C118.028 18.3677 118.544 18.5613 118.928 18.9485C119.336 19.3115 119.54 19.7229 119.54 20.1827ZM116.408 19.3115C115.856 19.3115 115.376 19.5777 114.968 20.1101C114.584 20.6184 114.32 21.417 114.176 22.506C115.328 22.385 116.18 22.1672 116.732 21.8526C117.284 21.5138 117.56 21.1024 117.56 20.6184C117.56 20.2553 117.452 19.9528 117.236 19.7108C117.02 19.4446 116.744 19.3115 116.408 19.3115Z" fill="#163300"/>
<path d="M124.447 19.4204C124.447 19.7834 124.411 20.1948 124.339 20.6547C124.267 21.1145 124.171 21.5864 124.051 22.0704C124.531 20.9088 125.059 20.0012 125.635 19.3478C126.211 18.6944 126.835 18.3677 127.507 18.3677C127.867 18.3677 128.143 18.4524 128.335 18.6218C128.527 18.7912 128.623 19.009 128.623 19.2752C128.623 19.5172 128.527 19.8318 128.335 20.219C128.167 20.6063 128.023 20.8725 127.903 21.0177C127.855 21.0419 127.807 21.0419 127.759 21.0177C127.711 20.9693 127.687 20.9209 127.687 20.8725C127.687 20.7031 127.615 20.5579 127.471 20.4368C127.351 20.3158 127.159 20.2553 126.895 20.2553C126.055 20.2553 125.287 20.8362 124.591 21.9978C123.919 23.1352 123.295 24.7808 122.719 26.9347C122.695 27.0557 122.611 27.1646 122.467 27.2614C122.323 27.334 122.155 27.4066 121.963 27.4792C121.795 27.5276 121.615 27.576 121.423 27.6244C121.231 27.6486 121.063 27.6607 120.919 27.6607C120.655 27.6607 120.583 27.5155 120.703 27.2251C120.919 26.7169 121.123 26.1724 121.315 25.5916C121.531 24.9866 121.723 24.3815 121.891 23.7765C122.059 23.1715 122.203 22.5907 122.323 22.0341C122.443 21.4533 122.539 20.9209 122.611 20.4368C122.659 20.0738 122.671 19.7955 122.647 19.6019C122.647 19.4083 122.551 19.3115 122.359 19.3115C122.119 19.3115 121.867 19.4204 121.603 19.6382C121.363 19.8318 121.135 20.0859 120.919 20.4005C120.823 20.4732 120.727 20.4853 120.631 20.4368C120.559 20.3642 120.547 20.2795 120.595 20.1827C120.739 19.9891 120.907 19.7955 121.099 19.6019C121.315 19.3841 121.543 19.1905 121.783 19.0211C122.047 18.8275 122.311 18.6702 122.575 18.5492C122.863 18.4282 123.151 18.3677 123.439 18.3677C123.823 18.3677 124.087 18.4645 124.231 18.6581C124.375 18.8275 124.447 19.0816 124.447 19.4204Z" fill="#163300"/>
<path d="M138.484 25.1197C138.532 25.0713 138.592 25.0834 138.664 25.156C138.736 25.2044 138.76 25.277 138.736 25.3738C138.304 25.9788 137.8 26.5112 137.224 26.971C136.672 27.4308 136.12 27.6607 135.568 27.6607C135.16 27.6607 134.836 27.5276 134.596 27.2614C134.38 26.9952 134.272 26.6443 134.272 26.2087C134.272 25.3617 134.416 24.442 134.704 23.4498C135.016 22.4576 135.424 21.4533 135.928 20.4368C136 20.2674 136.036 20.0859 136.036 19.8923C136.036 19.6503 135.928 19.5293 135.712 19.5293C134.824 19.5293 133.84 20.1464 132.76 21.3807C131.68 22.5907 130.684 24.5267 129.772 27.1888C129.748 27.2614 129.664 27.334 129.52 27.4066C129.4 27.455 129.256 27.5034 129.088 27.5518C128.92 27.576 128.752 27.6002 128.584 27.6244C128.416 27.6486 128.284 27.6607 128.188 27.6607C128.068 27.6607 127.972 27.6365 127.9 27.5881C127.852 27.5397 127.852 27.455 127.9 27.334C128.308 26.2934 128.716 25.156 129.124 23.9217C129.556 22.6633 129.928 21.4049 130.24 20.1464C130.312 19.9044 130.324 19.735 130.276 19.6382C130.228 19.5172 130.144 19.4567 130.024 19.4567C129.76 19.4567 129.508 19.5777 129.268 19.8197C129.028 20.0375 128.812 20.2795 128.62 20.5458C128.548 20.5942 128.476 20.5821 128.404 20.5095C128.356 20.4368 128.344 20.3642 128.368 20.2916C128.488 20.1222 128.644 19.9286 128.836 19.7108C129.052 19.493 129.292 19.2873 129.556 19.0937C129.82 18.8759 130.096 18.7065 130.384 18.5855C130.672 18.4403 130.96 18.3677 131.248 18.3677C131.656 18.3677 131.92 18.5008 132.04 18.767C132.184 19.009 132.22 19.3115 132.148 19.6745C132.028 20.2069 131.896 20.7152 131.752 21.1992C131.632 21.659 131.476 22.1793 131.284 22.7601C131.572 22.2277 131.92 21.7074 132.328 21.1992C132.76 20.6668 133.228 20.1948 133.732 19.7834C134.26 19.3478 134.824 19.009 135.424 18.767C136.024 18.5008 136.66 18.3677 137.332 18.3677C137.62 18.3677 137.836 18.4403 137.98 18.5855C138.148 18.7307 138.232 18.9001 138.232 19.0937C138.232 19.4325 138.148 19.735 137.98 20.0012C137.476 20.9209 137.044 21.8768 136.684 22.869C136.348 23.837 136.18 24.7082 136.18 25.4827C136.18 26.1119 136.384 26.4265 136.792 26.4265C137.056 26.4265 137.32 26.3176 137.584 26.0998C137.848 25.882 138.148 25.5553 138.484 25.1197Z" fill="#163300"/>
<path d="M149.725 25.3738C149.773 25.3254 149.833 25.3254 149.905 25.3738C149.977 25.4222 150.001 25.4948 149.977 25.5916C149.545 26.2208 149.065 26.729 148.537 27.1162C148.009 27.4792 147.505 27.6607 147.025 27.6607C146.473 27.6607 146.113 27.2735 145.945 26.4991C145.801 25.7005 145.885 24.7566 146.197 23.6676C145.549 24.7082 144.841 25.6037 144.073 26.3539C143.329 27.0799 142.537 27.5155 141.697 27.6607C141.121 27.6607 140.677 27.3945 140.365 26.8621C140.053 26.3297 139.897 25.7126 139.897 25.0108C139.897 24.2121 140.089 23.4256 140.473 22.6512C140.857 21.8526 141.361 21.1387 141.985 20.5095C142.633 19.8802 143.341 19.372 144.109 18.9848C144.901 18.5734 145.693 18.3677 146.485 18.3677C147.325 18.3677 147.985 18.5734 148.465 18.9848C148.705 18.8154 149.005 18.6702 149.365 18.5492C149.749 18.4282 150.085 18.3677 150.373 18.3677C150.469 18.3677 150.517 18.4282 150.517 18.5492C149.965 19.2268 149.485 19.977 149.077 20.7999C148.693 21.5985 148.393 22.3729 148.177 23.1231C147.961 23.8491 147.829 24.5025 147.781 25.0834C147.733 25.6642 147.781 26.0635 147.925 26.2813C148.045 26.4265 148.249 26.4749 148.537 26.4265C148.825 26.3539 149.221 26.003 149.725 25.3738ZM142.813 26.3176C143.101 26.3176 143.449 26.1361 143.857 25.7731C144.289 25.4101 144.733 24.9261 145.189 24.321C145.645 23.716 146.089 23.0384 146.521 22.2882C146.977 21.538 147.373 20.7757 147.709 20.0012C147.613 19.6866 147.385 19.4325 147.025 19.2389C146.689 19.0453 146.293 18.9485 145.837 18.9485C145.285 18.9485 144.769 19.0937 144.289 19.3841C143.809 19.6503 143.389 20.0375 143.029 20.5458C142.693 21.0298 142.417 21.6227 142.201 22.3245C142.009 23.0021 141.913 23.7523 141.913 24.5751C141.913 25.1076 141.997 25.5311 142.165 25.8457C142.357 26.1603 142.573 26.3176 142.813 26.3176Z" fill="#163300"/>
<path d="M161.863 25.1197C161.911 25.0713 161.971 25.0834 162.043 25.156C162.115 25.2044 162.139 25.277 162.115 25.3738C161.683 25.9788 161.179 26.5112 160.603 26.971C160.051 27.4308 159.499 27.6607 158.947 27.6607C158.539 27.6607 158.215 27.5276 157.975 27.2614C157.759 26.9952 157.651 26.6443 157.651 26.2087C157.651 25.3617 157.795 24.442 158.083 23.4498C158.395 22.4576 158.803 21.4533 159.307 20.4368C159.379 20.2674 159.415 20.0859 159.415 19.8923C159.415 19.6503 159.307 19.5293 159.091 19.5293C158.203 19.5293 157.219 20.1464 156.139 21.3807C155.059 22.5907 154.063 24.5267 153.151 27.1888C153.127 27.2614 153.043 27.334 152.899 27.4066C152.779 27.455 152.635 27.5034 152.467 27.5518C152.299 27.576 152.131 27.6002 151.963 27.6244C151.795 27.6486 151.663 27.6607 151.567 27.6607C151.447 27.6607 151.351 27.6365 151.279 27.5881C151.231 27.5397 151.231 27.455 151.279 27.334C151.687 26.2934 152.095 25.156 152.503 23.9217C152.935 22.6633 153.307 21.4049 153.619 20.1464C153.691 19.9044 153.703 19.735 153.655 19.6382C153.607 19.5172 153.523 19.4567 153.403 19.4567C153.139 19.4567 152.887 19.5777 152.647 19.8197C152.407 20.0375 152.191 20.2795 151.999 20.5458C151.927 20.5942 151.855 20.5821 151.783 20.5095C151.735 20.4368 151.723 20.3642 151.747 20.2916C151.867 20.1222 152.023 19.9286 152.215 19.7108C152.431 19.493 152.671 19.2873 152.935 19.0937C153.199 18.8759 153.475 18.7065 153.763 18.5855C154.051 18.4403 154.339 18.3677 154.627 18.3677C155.035 18.3677 155.299 18.5008 155.419 18.767C155.563 19.009 155.599 19.3115 155.527 19.6745C155.407 20.2069 155.275 20.7152 155.131 21.1992C155.011 21.659 154.855 22.1793 154.663 22.7601C154.951 22.2277 155.299 21.7074 155.707 21.1992C156.139 20.6668 156.607 20.1948 157.111 19.7834C157.639 19.3478 158.203 19.009 158.803 18.767C159.403 18.5008 160.039 18.3677 160.711 18.3677C160.999 18.3677 161.215 18.4403 161.359 18.5855C161.527 18.7307 161.611 18.9001 161.611 19.0937C161.611 19.4325 161.527 19.735 161.359 20.0012C160.855 20.9209 160.423 21.8768 160.063 22.869C159.727 23.837 159.559 24.7082 159.559 25.4827C159.559 26.1119 159.763 26.4265 160.171 26.4265C160.435 26.4265 160.699 26.3176 160.963 26.0998C161.227 25.882 161.527 25.5553 161.863 25.1197Z" fill="#163300"/>
<path d="M184.408 0.217285C184.768 0.217285 185.056 0.314088 185.272 0.507692C185.512 0.701297 185.68 0.955403 185.776 1.27001C185.872 1.58462 185.896 1.94762 185.848 2.35903C185.8 2.74624 185.68 3.13345 185.488 3.52066C185.44 3.56906 185.38 3.59326 185.308 3.59326C185.236 3.56906 185.188 3.50856 185.164 3.41176C185.212 3.04875 185.116 2.78254 184.876 2.61314C184.636 2.41954 184.3 2.32273 183.868 2.32273C182.572 2.32273 181.324 2.75834 180.124 3.62956C178.924 4.50078 177.784 5.84391 176.704 7.65896C175.648 9.4498 174.664 11.7367 173.752 14.5198C172.864 17.2787 172.06 20.57 171.34 24.3936C171.22 24.9261 171.208 25.3859 171.304 25.7731C171.4 26.1361 171.58 26.3176 171.844 26.3176C172.108 26.3176 172.36 26.2087 172.6 25.9909C172.84 25.7731 173.056 25.4948 173.248 25.156C173.296 25.1076 173.356 25.1076 173.428 25.156C173.524 25.2044 173.56 25.277 173.536 25.3738C173.416 25.6158 173.236 25.8699 172.996 26.1361C172.78 26.4023 172.528 26.6564 172.24 26.8984C171.976 27.1162 171.688 27.2977 171.376 27.4429C171.088 27.5881 170.824 27.6607 170.584 27.6607C170.056 27.6607 169.684 27.4671 169.468 27.0799C169.252 26.6927 169.168 26.2571 169.216 25.7731C169.264 25.3617 169.324 24.9745 169.396 24.6114C169.468 24.2484 169.552 23.8612 169.648 23.4498C169.168 24.4904 168.496 25.398 167.632 26.1724C166.768 26.9226 165.916 27.4187 165.076 27.6607C164.524 27.6607 164.08 27.455 163.744 27.0436C163.408 26.6322 163.24 26.0998 163.24 25.4464C163.24 24.5025 163.408 23.6071 163.744 22.7601C164.08 21.8889 164.536 21.1266 165.112 20.4732C165.688 19.8197 166.372 19.2994 167.164 18.9122C167.956 18.525 168.808 18.3314 169.72 18.3314C170.224 18.3314 170.668 18.4161 171.052 18.5855C171.484 17.2787 172 15.9234 172.6 14.5198C173.2 13.092 173.86 11.7004 174.58 10.3452C175.3 8.98999 176.056 7.69526 176.848 6.46103C177.664 5.2268 178.492 4.14988 179.332 3.23025C180.172 2.31063 181.024 1.58462 181.888 1.0522C182.752 0.495592 183.592 0.217285 184.408 0.217285ZM166.228 26.245C166.492 26.245 166.804 26.1119 167.164 25.8457C167.524 25.5553 167.896 25.1802 168.28 24.7203C168.664 24.2363 169.024 23.6918 169.36 23.0868C169.696 22.4576 169.984 21.7921 170.224 21.0903C170.32 20.8725 170.404 20.6547 170.476 20.4368C170.548 20.1948 170.608 19.9649 170.656 19.7471C170.56 19.4567 170.368 19.251 170.08 19.13C169.816 18.9848 169.516 18.9122 169.18 18.9122C168.676 18.9122 168.184 19.0695 167.704 19.3841C167.224 19.6745 166.804 20.0859 166.444 20.6184C166.084 21.1508 165.784 21.78 165.544 22.506C165.328 23.232 165.22 24.0306 165.22 24.9019C165.22 25.2891 165.304 25.6158 165.472 25.882C165.664 26.124 165.916 26.245 166.228 26.245Z" fill="#163300"/>
<path d="M182.118 20.1827C182.118 21.5622 180.306 22.506 176.682 23.0142C176.658 23.2562 176.634 23.4982 176.61 23.7402C176.61 23.9822 176.61 24.2363 176.61 24.5025C176.61 25.1318 176.754 25.6158 177.042 25.9546C177.33 26.2934 177.786 26.4628 178.41 26.4628C178.866 26.4628 179.334 26.3297 179.814 26.0635C180.294 25.7973 180.678 25.4585 180.966 25.0471C181.062 24.9987 181.134 25.0229 181.182 25.1197C181.23 25.1923 181.242 25.277 181.218 25.3738C180.738 26.003 180.126 26.5475 179.382 27.0073C178.662 27.4429 177.882 27.6607 177.042 27.6607C176.202 27.6607 175.59 27.455 175.206 27.0436C174.846 26.608 174.666 26.003 174.666 25.2286C174.666 24.4783 174.822 23.7039 175.134 22.9053C175.446 22.0825 175.842 21.3323 176.322 20.6547C176.826 19.977 177.39 19.4325 178.014 19.0211C178.662 18.5855 179.31 18.3677 179.958 18.3677C180.606 18.3677 181.122 18.5613 181.506 18.9485C181.914 19.3115 182.118 19.7229 182.118 20.1827ZM178.986 19.3115C178.434 19.3115 177.954 19.5777 177.546 20.1101C177.162 20.6184 176.898 21.417 176.754 22.506C177.906 22.385 178.758 22.1672 179.31 21.8526C179.862 21.5138 180.138 21.1024 180.138 20.6184C180.138 20.2553 180.03 19.9528 179.814 19.7108C179.598 19.4446 179.322 19.3115 178.986 19.3115Z" fill="#163300"/>
<path d="M187.709 18.3677C188.237 18.3677 188.657 18.4403 188.969 18.5855C189.305 18.7307 189.473 18.9122 189.473 19.13C189.473 19.3962 189.401 19.6987 189.257 20.0375C189.137 20.3763 189.017 20.6547 188.897 20.8725C188.849 20.9209 188.789 20.933 188.717 20.9088C188.645 20.8604 188.609 20.7878 188.609 20.691C188.681 20.5216 188.717 20.2795 188.717 19.9649C188.717 19.6261 188.621 19.3478 188.429 19.13C188.261 18.9122 188.021 18.8033 187.709 18.8033C187.301 18.8033 186.965 18.9364 186.701 19.2026C186.461 19.4446 186.341 19.7955 186.341 20.2553C186.341 20.6426 186.437 21.0177 186.629 21.3807C186.845 21.7195 187.073 22.0704 187.313 22.4334C187.577 22.7722 187.817 23.1473 188.033 23.5587C188.249 23.9459 188.357 24.3936 188.357 24.9019C188.357 25.7731 188.009 26.4507 187.313 26.9347C186.617 27.4187 185.705 27.6607 184.577 27.6607C183.761 27.6607 183.113 27.5276 182.633 27.2614C182.177 26.9952 181.949 26.7048 181.949 26.3902C181.949 26.2934 181.985 26.1603 182.057 25.9909C182.129 25.8215 182.225 25.64 182.345 25.4464C182.465 25.2528 182.597 25.0592 182.741 24.8656C182.885 24.6719 183.041 24.5146 183.209 24.3936C183.281 24.3452 183.341 24.3573 183.389 24.4299C183.461 24.5025 183.473 24.5751 183.425 24.6477C183.281 24.7929 183.173 24.9503 183.101 25.1197C183.029 25.2649 182.993 25.4706 182.993 25.7368C182.993 26.1724 183.137 26.5354 183.425 26.8258C183.713 27.092 184.085 27.2251 184.541 27.2251C185.165 27.2251 185.645 27.0557 185.981 26.7169C186.341 26.3539 186.521 25.9183 186.521 25.4101C186.521 24.9503 186.413 24.5267 186.197 24.1395C186.005 23.7281 185.789 23.3409 185.549 22.9779C185.309 22.5907 185.081 22.2035 184.865 21.8163C184.673 21.4291 184.577 21.0177 184.577 20.5821C184.577 19.9528 184.841 19.4325 185.369 19.0211C185.897 18.5855 186.677 18.3677 187.709 18.3677Z" fill="#163300"/>
<path d="M36.812 43.7944V35.784H37.856L42.764 42.5239V35.784H43.664V43.7944H42.62L37.712 37.0304V43.7944H36.812Z" fill="#163300"/>
<path d="M51.2888 43.8912C50.6328 43.8912 50.0488 43.746 49.5368 43.4556C49.0328 43.1571 48.6368 42.7417 48.3488 42.2093C48.0608 41.6769 47.9168 41.0557 47.9168 40.3458V35.784H48.8168V40.37C48.8168 40.9912 48.9328 41.4954 49.1648 41.8826C49.4048 42.2698 49.7128 42.5562 50.0888 42.7417C50.4728 42.9192 50.8728 43.0079 51.2888 43.0079C51.7128 43.0079 52.1128 42.9192 52.4888 42.7417C52.8648 42.5562 53.1728 42.2698 53.4128 41.8826C53.6528 41.4954 53.7728 40.9912 53.7728 40.37V35.784H54.6728V40.3458C54.6728 41.0477 54.5288 41.6648 54.2408 42.1972C53.9528 42.7296 53.5528 43.145 53.0408 43.4435C52.5368 43.742 51.9528 43.8912 51.2888 43.8912Z" fill="#163300"/>
<path d="M60.8886 43.7944V36.6432H58.1166V35.784H64.5606V36.6432H61.7886V43.7944H60.8886Z" fill="#163300"/>
<path d="M68.1058 43.7944V35.784H71.9098C72.7258 35.784 73.3737 36.0099 73.8538 36.4617C74.3418 36.9134 74.5858 37.5224 74.5858 38.2888C74.5858 38.8051 74.4857 39.2165 74.2858 39.523C74.0938 39.8296 73.8497 40.0635 73.5537 40.2248C73.2578 40.3781 72.9617 40.491 72.6657 40.5636L74.7538 43.7944H73.6858L71.7657 40.721H69.0058V43.7944H68.1058ZM69.0058 39.8618H71.7538C72.0418 39.8618 72.3338 39.8175 72.6298 39.7287C72.9258 39.64 73.1738 39.4827 73.3737 39.2568C73.5817 39.0229 73.6858 38.7002 73.6858 38.2888C73.6858 37.7806 73.5138 37.3813 73.1698 37.0909C72.8258 36.7924 72.3698 36.6432 71.8018 36.6432H69.0058V39.8618Z" fill="#163300"/>
<path d="M78.5331 43.7944V35.784H79.4331V43.7944H78.5331Z" fill="#163300"/>
<path d="M87.1168 43.8912C86.3248 43.8912 85.6407 43.7097 85.0648 43.3467C84.4888 42.9756 84.0447 42.4795 83.7327 41.8584C83.4287 41.2372 83.2767 40.5475 83.2767 39.7892C83.2767 39.0309 83.4287 38.3412 83.7327 37.7201C84.0447 37.0989 84.4888 36.6069 85.0648 36.2438C85.6407 35.8728 86.3248 35.6872 87.1168 35.6872C87.7168 35.6872 88.2567 35.7961 88.7367 36.0139C89.2168 36.2237 89.6247 36.5141 89.9607 36.8852C90.2967 37.2562 90.5488 37.6878 90.7168 38.1799H89.7688C89.5688 37.6878 89.2527 37.2966 88.8207 37.0062C88.3887 36.7158 87.8447 36.5706 87.1888 36.5706C86.5488 36.5706 86.0007 36.7158 85.5447 37.0062C85.0967 37.2885 84.7568 37.6717 84.5247 38.1557C84.2927 38.6397 84.1768 39.1842 84.1768 39.7892C84.1768 40.3862 84.2927 40.9307 84.5247 41.4228C84.7568 41.9068 85.0967 42.294 85.5447 42.5844C86.0007 42.8667 86.5488 43.0079 87.1888 43.0079C87.8447 43.0079 88.3887 42.8627 88.8207 42.5723C89.2527 42.2819 89.5688 41.8906 89.7688 41.3986H90.7168C90.5488 41.8826 90.2967 42.3142 89.9607 42.6933C89.6247 43.0644 89.2168 43.3588 88.7367 43.5766C88.2567 43.7864 87.7168 43.8912 87.1168 43.8912Z" fill="#163300"/>
<path d="M94.4659 43.7944V35.784H95.3659V43.7944H94.4659Z" fill="#163300"/>
<path d="M103.242 43.8912C102.642 43.8912 102.094 43.7864 101.598 43.5766C101.102 43.3669 100.674 43.0724 100.314 42.6933C99.9616 42.3142 99.6896 41.8785 99.4976 41.3865C99.3056 40.8863 99.2096 40.3539 99.2096 39.7892C99.2096 39.2165 99.3056 38.6841 99.4976 38.192C99.6896 37.6999 99.9616 37.2643 100.314 36.8852C100.674 36.506 101.102 36.2116 101.598 36.0018C102.094 35.7921 102.642 35.6872 103.242 35.6872C103.842 35.6872 104.39 35.7921 104.886 36.0018C105.382 36.2116 105.806 36.506 106.158 36.8852C106.518 37.2643 106.794 37.6999 106.986 38.192C107.178 38.6841 107.274 39.2165 107.274 39.7892C107.274 40.3539 107.178 40.8863 106.986 41.3865C106.794 41.8785 106.518 42.3142 106.158 42.6933C105.806 43.0724 105.382 43.3669 104.886 43.5766C104.39 43.7864 103.842 43.8912 103.242 43.8912ZM103.242 43.0079C103.89 43.0079 104.446 42.8667 104.91 42.5844C105.382 42.294 105.742 41.9068 105.99 41.4228C106.246 40.9307 106.374 40.3862 106.374 39.7892C106.374 39.1842 106.246 38.6397 105.99 38.1557C105.742 37.6717 105.382 37.2885 104.91 37.0062C104.446 36.7158 103.89 36.5706 103.242 36.5706C102.602 36.5706 102.046 36.7158 101.574 37.0062C101.102 37.2885 100.738 37.6717 100.482 38.1557C100.234 38.6397 100.11 39.1842 100.11 39.7892C100.11 40.3862 100.234 40.9307 100.482 41.4228C100.738 41.9068 101.102 42.294 101.574 42.5844C102.046 42.8667 102.602 43.0079 103.242 43.0079Z" fill="#163300"/>
<path d="M111.114 43.7944V35.784H112.158L117.066 42.5239V35.784H117.966V43.7944H116.922L112.014 37.0304V43.7944H111.114Z" fill="#163300"/>
<path d="M122.314 43.7944V35.784H123.214V43.7944H122.314Z" fill="#163300"/>
<path d="M130.406 43.8912C129.622 43.8912 128.986 43.7864 128.498 43.5766C128.01 43.3588 127.642 43.0603 127.394 42.6812C127.154 42.302 127.014 41.8745 126.974 41.3986H127.91C127.934 41.7858 128.062 42.1004 128.294 42.3424C128.526 42.5763 128.83 42.7498 129.206 42.8627C129.59 42.9756 130.01 43.0321 130.466 43.0321C131.138 43.0321 131.67 42.9151 132.062 42.6812C132.454 42.4392 132.65 42.0842 132.65 41.6164C132.65 41.334 132.55 41.1082 132.35 40.9388C132.158 40.7613 131.898 40.6161 131.57 40.5031C131.25 40.3902 130.898 40.2894 130.514 40.2006C130.13 40.1038 129.742 40.003 129.35 39.8981C128.966 39.7933 128.61 39.6602 128.282 39.4988C127.962 39.3375 127.702 39.1318 127.502 38.8817C127.31 38.6236 127.214 38.2969 127.214 37.9016C127.214 37.2482 127.462 36.7158 127.958 36.3043C128.462 35.8929 129.21 35.6872 130.202 35.6872C130.906 35.6872 131.486 35.7961 131.942 36.0139C132.398 36.2237 132.738 36.502 132.962 36.8489C133.194 37.1957 133.322 37.5708 133.346 37.9742H132.422C132.374 37.5708 132.174 37.232 131.822 36.9578C131.47 36.6754 130.93 36.5343 130.202 36.5343C129.754 36.5343 129.39 36.5786 129.11 36.6674C128.83 36.7561 128.614 36.8731 128.462 37.0183C128.318 37.1554 128.218 37.3006 128.162 37.4539C128.114 37.6071 128.09 37.7523 128.09 37.8895C128.09 38.1557 128.186 38.3735 128.378 38.5429C128.578 38.7042 128.838 38.8414 129.158 38.9543C129.486 39.0592 129.846 39.156 130.238 39.2447C130.63 39.3335 131.018 39.4343 131.402 39.5472C131.794 39.6521 132.15 39.7892 132.47 39.9586C132.798 40.12 133.058 40.3297 133.25 40.5878C133.45 40.846 133.55 41.1767 133.55 41.5801C133.55 42.3222 133.27 42.895 132.71 43.2983C132.15 43.6936 131.382 43.8912 130.406 43.8912Z" fill="#163300"/>
<path d="M139.313 43.7944V36.6432H136.541V35.784H142.985V36.6432H140.213V43.7944H139.313Z" fill="#163300"/>
<path d="M144.891 43.7944L148.263 35.784H149.391L152.763 43.7944H151.767L150.795 41.4712H146.859L145.887 43.7944H144.891ZM147.207 40.6362H150.447L148.827 36.7279L147.207 40.6362Z" fill="#163300"/>
</svg>
