<svg width="190" height="44" viewBox="0 0 190 44" fill="none" xmlns="http://www.w3.org/2000/svg">
<path d="M8.208 8.388C8.208 9.228 8.496 9.948 9.072 10.548C9.648 11.124 10.62 11.616 11.988 12.024C12.06 12.072 12.048 12.168 11.952 12.312C11.88 12.432 11.772 12.576 11.628 12.744C11.484 12.888 11.328 13.02 11.16 13.14C10.992 13.26 10.86 13.332 10.764 13.356C8.1 13.236 6.036 13.812 4.572 15.084C3.132 16.332 2.412 18.192 2.412 20.664C2.412 21.504 2.532 22.284 2.772 23.004C3.036 23.724 3.396 24.348 3.852 24.876C4.332 25.404 4.896 25.824 5.544 26.136C6.216 26.424 6.972 26.568 7.812 26.568C9.78 26.568 11.388 26.112 12.636 25.2C13.884 24.288 14.784 22.812 15.336 20.772C15.408 20.652 15.48 20.616 15.552 20.664C15.648 20.712 15.708 20.808 15.732 20.952C15.444 22.296 15.096 23.412 14.688 24.3C14.304 25.188 13.944 25.704 13.608 25.848C12.6 26.304 11.58 26.652 10.548 26.892C9.516 27.108 8.304 27.216 6.912 27.216C4.656 27.216 2.94 26.724 1.764 25.74C0.588 24.732 0 23.328 0 21.528C0 20.376 0.228 19.32 0.684 18.36C1.14 17.376 1.764 16.5 2.556 15.732C3.372 14.964 4.332 14.316 5.436 13.788C6.54 13.26 7.752 12.876 9.072 12.636C8.16 12.252 7.428 11.736 6.876 11.088C6.324 10.44 6.048 9.696 6.048 8.856C6.048 8.208 6.204 7.596 6.516 7.02C6.852 6.42 7.332 5.904 7.956 5.472C8.58 5.04 9.348 4.692 10.26 4.428C11.172 4.164 12.216 4.032 13.392 4.032C14.04 4.032 14.652 4.092 15.228 4.212C15.804 4.332 16.308 4.488 16.74 4.68C17.196 4.872 17.544 5.1 17.784 5.364C18.048 5.604 18.18 5.844 18.18 6.084C18.18 6.276 18.132 6.516 18.036 6.804C17.964 7.092 17.856 7.38 17.712 7.668C17.592 7.956 17.46 8.232 17.316 8.496C17.196 8.736 17.1 8.904 17.028 9C16.956 9.048 16.884 9.048 16.812 9C16.74 8.952 16.716 8.88 16.74 8.784C16.884 8.52 16.98 8.232 17.028 7.92C17.076 7.608 17.028 7.284 16.884 6.948C16.596 6.348 16.056 5.844 15.264 5.436C14.496 5.004 13.584 4.788 12.528 4.788C11.088 4.788 10.008 5.124 9.288 5.796C8.568 6.444 8.208 7.308 8.208 8.388Z" fill="#163300"/>
<path d="M30.265 19.656C30.265 19.152 30.085 18.9 29.725 18.9C29.005 18.9 28.153 19.572 27.169 20.916C26.185 22.236 25.273 24.132 24.433 26.604C24.385 26.748 24.181 26.892 23.821 27.036C23.485 27.156 23.161 27.216 22.849 27.216C22.561 27.216 22.453 27.108 22.525 26.892C22.669 26.46 22.861 25.92 23.101 25.272C23.365 24.624 23.605 23.964 23.821 23.292C24.061 22.596 24.265 21.948 24.433 21.348C24.601 20.724 24.685 20.244 24.685 19.908C24.685 19.26 24.481 18.936 24.073 18.936C23.449 18.936 22.657 19.584 21.697 20.88C20.761 22.152 19.849 24.06 18.961 26.604C18.913 26.748 18.721 26.892 18.385 27.036C18.049 27.156 17.749 27.216 17.485 27.216C17.365 27.216 17.269 27.192 17.197 27.144C17.125 27.096 17.113 27.012 17.161 26.892C17.353 26.364 17.557 25.788 17.773 25.164C17.989 24.516 18.205 23.868 18.421 23.22C18.637 22.572 18.829 21.936 18.997 21.312C19.189 20.688 19.357 20.1 19.501 19.548C19.573 19.116 19.501 18.9 19.285 18.9C19.093 18.9 18.865 19.032 18.601 19.296C18.337 19.56 18.073 19.872 17.809 20.232C17.737 20.28 17.665 20.28 17.593 20.232C17.521 20.16 17.509 20.088 17.557 20.016C17.917 19.464 18.349 18.996 18.853 18.612C19.357 18.204 19.897 18 20.473 18C20.857 18 21.109 18.12 21.229 18.36C21.373 18.6 21.409 18.888 21.337 19.224C21.241 19.752 21.145 20.196 21.049 20.556C20.953 20.916 20.821 21.324 20.653 21.78C21.277 20.676 21.961 19.776 22.705 19.08C23.473 18.36 24.289 18 25.153 18C25.585 18 25.909 18.12 26.125 18.36C26.365 18.6 26.485 18.888 26.485 19.224C26.485 20.16 26.317 21.108 25.981 22.068C26.749 20.748 27.493 19.74 28.213 19.044C28.957 18.348 29.845 18 30.877 18C31.357 18 31.693 18.132 31.885 18.396C32.101 18.636 32.209 18.888 32.209 19.152C32.209 19.56 32.113 20.016 31.921 20.52C31.753 21 31.549 21.516 31.309 22.068C31.093 22.596 30.889 23.136 30.697 23.688C30.529 24.216 30.445 24.732 30.445 25.236C30.445 25.836 30.637 26.136 31.021 26.136C31.405 26.136 31.921 25.74 32.569 24.948C32.641 24.9 32.701 24.912 32.749 24.984C32.821 25.056 32.833 25.14 32.785 25.236C32.305 25.836 31.813 26.316 31.309 26.676C30.805 27.036 30.313 27.216 29.833 27.216C29.041 27.216 28.645 26.76 28.645 25.848C28.645 25.272 28.729 24.696 28.897 24.12C29.065 23.52 29.245 22.956 29.437 22.428C29.653 21.876 29.845 21.36 30.013 20.88C30.181 20.4 30.265 19.992 30.265 19.656Z" fill="#163300"/>
<path d="M43.8699 24.948C43.9179 24.9 43.9779 24.9 44.0499 24.948C44.1219 24.996 44.1459 25.068 44.1219 25.164C43.6899 25.788 43.2099 26.292 42.6819 26.676C42.1539 27.036 41.6499 27.216 41.1699 27.216C40.6179 27.216 40.2579 26.832 40.0899 26.064C39.9459 25.272 40.0299 24.336 40.3419 23.256C39.6939 24.288 38.9859 25.176 38.2179 25.92C37.4739 26.64 36.6819 27.072 35.8419 27.216C35.2659 27.216 34.8219 26.952 34.5099 26.424C34.1979 25.896 34.0419 25.284 34.0419 24.588C34.0419 23.796 34.2339 23.016 34.6179 22.248C35.0019 21.456 35.5059 20.748 36.1299 20.124C36.7779 19.5 37.4859 18.996 38.2539 18.612C39.0459 18.204 39.8379 18 40.6299 18C41.4699 18 42.1299 18.204 42.6099 18.612C42.8499 18.444 43.1499 18.3 43.5099 18.18C43.8939 18.06 44.2299 18 44.5179 18C44.6139 18 44.6619 18.06 44.6619 18.18C44.1099 18.852 43.6299 19.596 43.2219 20.412C42.8379 21.204 42.5379 21.972 42.3219 22.716C42.1059 23.436 41.9739 24.084 41.9259 24.66C41.8779 25.236 41.9259 25.632 42.0699 25.848C42.1899 25.992 42.3939 26.04 42.6819 25.992C42.9699 25.92 43.3659 25.572 43.8699 24.948ZM36.9579 25.884C37.2459 25.884 37.5939 25.704 38.0019 25.344C38.4339 24.984 38.8779 24.504 39.3339 23.904C39.7899 23.304 40.2339 22.632 40.6659 21.888C41.1219 21.144 41.5179 20.388 41.8539 19.62C41.7579 19.308 41.5299 19.056 41.1699 18.864C40.8339 18.672 40.4379 18.576 39.9819 18.576C39.4299 18.576 38.9139 18.72 38.4339 19.008C37.9539 19.272 37.5339 19.656 37.1739 20.16C36.8379 20.64 36.5619 21.228 36.3459 21.924C36.1539 22.596 36.0579 23.34 36.0579 24.156C36.0579 24.684 36.1419 25.104 36.3099 25.416C36.5019 25.728 36.7179 25.884 36.9579 25.884Z" fill="#163300"/>
<path d="M47.3673 27.216C46.3593 27.216 45.8553 26.664 45.8553 25.56C45.8553 25.176 45.8913 24.732 45.9633 24.228C46.0593 23.724 46.1913 23.208 46.3593 22.68C46.5513 22.128 46.7673 21.576 47.0073 21.024C47.2473 20.472 47.5353 19.944 47.8713 19.44C47.6073 19.608 47.3553 19.788 47.1153 19.98C46.8753 20.148 46.6593 20.328 46.4673 20.52C46.3953 20.568 46.3233 20.556 46.2513 20.484C46.2033 20.388 46.2033 20.304 46.2513 20.232C46.6593 19.8 47.2353 19.356 47.9793 18.9C48.7473 18.444 49.4793 18.084 50.1753 17.82C50.2953 17.82 50.3793 17.856 50.4273 17.928C50.4993 17.976 50.5113 18.048 50.4633 18.144C49.6953 19.152 49.0713 20.244 48.5913 21.42C48.1353 22.596 47.9073 23.736 47.9073 24.84C47.9073 25.536 48.1233 25.884 48.5553 25.884C48.8673 25.884 49.2513 25.68 49.7073 25.272C50.1633 24.84 50.6433 24.288 51.1473 23.616C51.6513 22.92 52.1553 22.14 52.6593 21.276C53.1873 20.412 53.6673 19.536 54.0993 18.648C54.1713 18.504 54.3753 18.36 54.7113 18.216C55.0713 18.072 55.4313 18 55.7913 18C56.1513 18 56.2593 18.096 56.1153 18.288C55.7793 18.912 55.4793 19.5 55.2153 20.052C54.9753 20.58 54.7713 21.108 54.6033 21.636C54.4353 22.164 54.3033 22.704 54.2073 23.256C54.1353 23.784 54.0993 24.372 54.0993 25.02C54.0993 25.788 54.3033 26.172 54.7113 26.172C55.1193 26.172 55.5753 25.812 56.0793 25.092C56.1513 25.044 56.2233 25.044 56.2953 25.092C56.3673 25.14 56.3913 25.212 56.3673 25.308C55.9593 25.932 55.5033 26.412 54.9993 26.748C54.5193 27.06 54.0753 27.216 53.6673 27.216C52.6593 27.216 52.1553 26.628 52.1553 25.452C52.1553 24.228 52.3713 23.016 52.8033 21.816C51.8913 23.472 50.9313 24.792 49.9233 25.776C48.9153 26.736 48.0633 27.216 47.3673 27.216Z" fill="#163300"/>
<path d="M65.1884 19.8C65.1884 21.168 63.3764 22.104 59.7524 22.608C59.7284 22.848 59.7044 23.088 59.6804 23.328C59.6804 23.568 59.6804 23.82 59.6804 24.084C59.6804 24.708 59.8244 25.188 60.1124 25.524C60.4004 25.86 60.8564 26.028 61.4804 26.028C61.9364 26.028 62.4044 25.896 62.8844 25.632C63.3644 25.368 63.7484 25.032 64.0364 24.624C64.1324 24.576 64.2044 24.6 64.2524 24.696C64.3004 24.768 64.3124 24.852 64.2884 24.948C63.8084 25.572 63.1964 26.112 62.4524 26.568C61.7324 27 60.9524 27.216 60.1124 27.216C59.2724 27.216 58.6604 27.012 58.2764 26.604C57.9164 26.172 57.7364 25.572 57.7364 24.804C57.7364 24.06 57.8924 23.292 58.2044 22.5C58.5164 21.684 58.9124 20.94 59.3924 20.268C59.8964 19.596 60.4604 19.056 61.0844 18.648C61.7324 18.216 62.3804 18 63.0284 18C63.6764 18 64.1924 18.192 64.5764 18.576C64.9844 18.936 65.1884 19.344 65.1884 19.8ZM62.0564 18.936C61.5044 18.936 61.0244 19.2 60.6164 19.728C60.2324 20.232 59.9684 21.024 59.8244 22.104C60.9764 21.984 61.8284 21.768 62.3804 21.456C62.9324 21.12 63.2084 20.712 63.2084 20.232C63.2084 19.872 63.1004 19.572 62.8844 19.332C62.6684 19.068 62.3924 18.936 62.0564 18.936Z" fill="#163300"/>
<path d="M81.6874 0.468C82.0474 0.468 82.3354 0.564001 82.5514 0.756001C82.7914 0.924 82.9474 1.164 83.0194 1.476C83.1154 1.764 83.1274 2.1 83.0554 2.484C83.0074 2.868 82.8754 3.252 82.6594 3.636C82.6114 3.684 82.5514 3.684 82.4794 3.636C82.4074 3.588 82.3594 3.528 82.3354 3.456C82.3834 3.168 82.2754 2.928 82.0114 2.736C81.7714 2.544 81.3874 2.448 80.8594 2.448C79.8754 2.448 78.8794 2.82 77.8714 3.564C76.8874 4.284 75.9274 5.244 74.9914 6.444C74.0554 7.644 73.1794 9.024 72.3634 10.584C71.5474 12.144 70.8394 13.752 70.2394 15.408C69.6394 17.064 69.1594 18.708 68.7994 20.34C68.4634 21.972 68.2954 23.46 68.2954 24.804C68.2954 25.524 68.4994 25.884 68.9074 25.884C69.1954 25.884 69.4714 25.764 69.7354 25.524C70.0234 25.284 70.3474 24.924 70.7074 24.444C70.7794 24.396 70.8394 24.408 70.8874 24.48C70.9594 24.528 70.9834 24.6 70.9594 24.696C70.4794 25.416 69.9154 26.016 69.2674 26.496C68.6194 26.976 68.0314 27.216 67.5034 27.216C67.0474 27.216 66.7234 27.084 66.5314 26.82C66.3634 26.556 66.2794 26.22 66.2794 25.812C66.2794 24.684 66.5194 23.28 66.9994 21.6C67.4794 19.896 68.1154 18.108 68.9074 16.236C69.7234 14.34 70.6594 12.456 71.7154 10.584C72.7714 8.712 73.8634 7.032 74.9914 5.544C76.1434 4.032 77.2954 2.808 78.4474 1.872C79.5994 0.936 80.6794 0.468 81.6874 0.468Z" fill="#163300"/>
<path d="M81.5574 24.948C81.6054 24.9 81.6654 24.9 81.7374 24.948C81.8094 24.996 81.8334 25.068 81.8094 25.164C81.3774 25.788 80.8974 26.292 80.3694 26.676C79.8414 27.036 79.3374 27.216 78.8574 27.216C78.3054 27.216 77.9454 26.832 77.7774 26.064C77.6334 25.272 77.7174 24.336 78.0294 23.256C77.3814 24.288 76.6734 25.176 75.9054 25.92C75.1614 26.64 74.3694 27.072 73.5294 27.216C72.9534 27.216 72.5094 26.952 72.1974 26.424C71.8854 25.896 71.7294 25.284 71.7294 24.588C71.7294 23.796 71.9214 23.016 72.3054 22.248C72.6894 21.456 73.1934 20.748 73.8174 20.124C74.4654 19.5 75.1734 18.996 75.9414 18.612C76.7334 18.204 77.5254 18 78.3174 18C79.1574 18 79.8174 18.204 80.2974 18.612C80.5374 18.444 80.8374 18.3 81.1974 18.18C81.5814 18.06 81.9174 18 82.2054 18C82.3014 18 82.3494 18.06 82.3494 18.18C81.7974 18.852 81.3174 19.596 80.9094 20.412C80.5254 21.204 80.2254 21.972 80.0094 22.716C79.7934 23.436 79.6614 24.084 79.6134 24.66C79.5654 25.236 79.6134 25.632 79.7574 25.848C79.8774 25.992 80.0814 26.04 80.3694 25.992C80.6574 25.92 81.0534 25.572 81.5574 24.948ZM74.6454 25.884C74.9334 25.884 75.2814 25.704 75.6894 25.344C76.1214 24.984 76.5654 24.504 77.0214 23.904C77.4774 23.304 77.9214 22.632 78.3534 21.888C78.8094 21.144 79.2054 20.388 79.5414 19.62C79.4454 19.308 79.2174 19.056 78.8574 18.864C78.5214 18.672 78.1254 18.576 77.6694 18.576C77.1174 18.576 76.6014 18.72 76.1214 19.008C75.6414 19.272 75.2214 19.656 74.8614 20.16C74.5254 20.64 74.2494 21.228 74.0334 21.924C73.8414 22.596 73.7454 23.34 73.7454 24.156C73.7454 24.684 73.8294 25.104 73.9974 25.416C74.1894 25.728 74.4054 25.884 74.6454 25.884Z" fill="#163300"/>
<path d="M118.477 5.256C118.573 5.328 118.585 5.448 118.513 5.616C118.441 5.76 118.321 5.916 118.153 6.084C118.009 6.228 117.829 6.36 117.613 6.48C117.397 6.6 117.205 6.66 117.037 6.66C116.461 6.612 115.873 6.552 115.273 6.48C114.697 6.408 114.121 6.324 113.545 6.228C113.041 6.372 112.597 6.588 112.213 6.876C111.853 7.14 111.517 7.5 111.205 7.956C110.917 8.412 110.641 8.988 110.377 9.684C110.137 10.356 109.885 11.184 109.621 12.168C109.453 12.72 109.297 13.26 109.153 13.788C109.009 14.316 108.841 14.82 108.649 15.3H112.357C112.477 15.348 112.513 15.408 112.465 15.48C112.441 15.528 112.333 15.576 112.141 15.624C111.517 15.648 110.905 15.672 110.305 15.696C109.705 15.696 109.105 15.708 108.505 15.732C107.065 19.692 105.229 22.596 102.997 24.444C100.789 26.292 98.1368 27.216 95.0408 27.216C93.3128 27.216 91.9688 26.808 91.0088 25.992C90.0728 25.176 89.6048 24.048 89.6048 22.608C89.6048 21.768 89.8448 20.988 90.3248 20.268C90.8288 19.548 91.5368 18.984 92.4488 18.576C92.5448 18.576 92.6168 18.624 92.6648 18.72C92.7128 18.792 92.7128 18.864 92.6648 18.936C92.2328 19.272 91.9088 19.644 91.6928 20.052C91.5008 20.436 91.4048 20.976 91.4048 21.672C91.4048 22.296 91.5128 22.872 91.7288 23.4C91.9448 23.904 92.2808 24.36 92.7368 24.768C93.1928 25.152 93.7808 25.452 94.5008 25.668C95.2208 25.884 96.0848 25.992 97.0928 25.992C98.2448 25.992 99.2528 25.848 100.117 25.56C101.005 25.272 101.809 24.756 102.529 24.012C103.249 23.244 103.921 22.2 104.545 20.88C105.169 19.56 105.805 17.868 106.453 15.804C105.229 15.852 104.041 15.924 102.889 16.02C101.737 16.116 100.609 16.248 99.5048 16.416C99.4328 16.392 99.4448 16.344 99.5408 16.272C99.6368 16.176 99.7688 16.08 99.9368 15.984C100.129 15.888 100.333 15.804 100.549 15.732C100.765 15.636 100.933 15.576 101.053 15.552C102.853 15.456 104.701 15.384 106.597 15.336C106.717 14.952 106.837 14.556 106.957 14.148C107.077 13.74 107.197 13.32 107.317 12.888C107.845 10.944 108.517 9.456 109.333 8.424C110.149 7.368 111.265 6.588 112.681 6.084C111.385 5.892 110.137 5.724 108.937 5.58C107.761 5.412 106.633 5.328 105.553 5.328C103.753 5.328 102.265 5.676 101.089 6.372C99.9128 7.044 99.0488 8.208 98.4968 9.864C98.4248 9.936 98.3528 9.948 98.2808 9.9C98.2088 9.852 98.1728 9.768 98.1728 9.648C98.7008 7.944 99.7328 6.576 101.269 5.544C102.829 4.512 104.749 3.996 107.029 3.996C107.917 3.996 108.805 4.044 109.693 4.14C110.605 4.236 111.529 4.356 112.465 4.5C113.401 4.62 114.361 4.752 115.345 4.896C116.353 5.04 117.397 5.16 118.477 5.256Z" fill="#163300"/>
<path d="M119.54 19.8C119.54 21.168 117.728 22.104 114.104 22.608C114.08 22.848 114.056 23.088 114.032 23.328C114.032 23.568 114.032 23.82 114.032 24.084C114.032 24.708 114.176 25.188 114.464 25.524C114.752 25.86 115.208 26.028 115.832 26.028C116.288 26.028 116.756 25.896 117.236 25.632C117.716 25.368 118.1 25.032 118.388 24.624C118.484 24.576 118.556 24.6 118.604 24.696C118.652 24.768 118.664 24.852 118.64 24.948C118.16 25.572 117.548 26.112 116.804 26.568C116.084 27 115.304 27.216 114.464 27.216C113.624 27.216 113.012 27.012 112.628 26.604C112.268 26.172 112.088 25.572 112.088 24.804C112.088 24.06 112.244 23.292 112.556 22.5C112.868 21.684 113.264 20.94 113.744 20.268C114.248 19.596 114.812 19.056 115.436 18.648C116.084 18.216 116.732 18 117.38 18C118.028 18 118.544 18.192 118.928 18.576C119.336 18.936 119.54 19.344 119.54 19.8ZM116.408 18.936C115.856 18.936 115.376 19.2 114.968 19.728C114.584 20.232 114.32 21.024 114.176 22.104C115.328 21.984 116.18 21.768 116.732 21.456C117.284 21.12 117.56 20.712 117.56 20.232C117.56 19.872 117.452 19.572 117.236 19.332C117.02 19.068 116.744 18.936 116.408 18.936Z" fill="#163300"/>
<path d="M124.447 19.044C124.447 19.404 124.411 19.812 124.339 20.268C124.267 20.724 124.171 21.192 124.051 21.672C124.531 20.52 125.059 19.62 125.635 18.972C126.211 18.324 126.835 18 127.507 18C127.867 18 128.143 18.084 128.335 18.252C128.527 18.42 128.623 18.636 128.623 18.9C128.623 19.14 128.527 19.452 128.335 19.836C128.167 20.22 128.023 20.484 127.903 20.628C127.855 20.652 127.807 20.652 127.759 20.628C127.711 20.58 127.687 20.532 127.687 20.484C127.687 20.316 127.615 20.172 127.471 20.052C127.351 19.932 127.159 19.872 126.895 19.872C126.055 19.872 125.287 20.448 124.591 21.6C123.919 22.728 123.295 24.36 122.719 26.496C122.695 26.616 122.611 26.724 122.467 26.82C122.323 26.892 122.155 26.964 121.963 27.036C121.795 27.084 121.615 27.132 121.423 27.18C121.231 27.204 121.063 27.216 120.919 27.216C120.655 27.216 120.583 27.072 120.703 26.784C120.919 26.28 121.123 25.74 121.315 25.164C121.531 24.564 121.723 23.964 121.891 23.364C122.059 22.764 122.203 22.188 122.323 21.636C122.443 21.06 122.539 20.532 122.611 20.052C122.659 19.692 122.671 19.416 122.647 19.224C122.647 19.032 122.551 18.936 122.359 18.936C122.119 18.936 121.867 19.044 121.603 19.26C121.363 19.452 121.135 19.704 120.919 20.016C120.823 20.088 120.727 20.1 120.631 20.052C120.559 19.98 120.547 19.896 120.595 19.8C120.739 19.608 120.907 19.416 121.099 19.224C121.315 19.008 121.543 18.816 121.783 18.648C122.047 18.456 122.311 18.3 122.575 18.18C122.863 18.06 123.151 18 123.439 18C123.823 18 124.087 18.096 124.231 18.288C124.375 18.456 124.447 18.708 124.447 19.044Z" fill="#163300"/>
<path d="M138.484 24.696C138.532 24.648 138.592 24.66 138.664 24.732C138.736 24.78 138.76 24.852 138.736 24.948C138.304 25.548 137.8 26.076 137.224 26.532C136.672 26.988 136.12 27.216 135.568 27.216C135.16 27.216 134.836 27.084 134.596 26.82C134.38 26.556 134.272 26.208 134.272 25.776C134.272 24.936 134.416 24.024 134.704 23.04C135.016 22.056 135.424 21.06 135.928 20.052C136 19.884 136.036 19.704 136.036 19.512C136.036 19.272 135.928 19.152 135.712 19.152C134.824 19.152 133.84 19.764 132.76 20.988C131.68 22.188 130.684 24.108 129.772 26.748C129.748 26.82 129.664 26.892 129.52 26.964C129.4 27.012 129.256 27.06 129.088 27.108C128.92 27.132 128.752 27.156 128.584 27.18C128.416 27.204 128.284 27.216 128.188 27.216C128.068 27.216 127.972 27.192 127.9 27.144C127.852 27.096 127.852 27.012 127.9 26.892C128.308 25.86 128.716 24.732 129.124 23.508C129.556 22.26 129.928 21.012 130.24 19.764C130.312 19.524 130.324 19.356 130.276 19.26C130.228 19.14 130.144 19.08 130.024 19.08C129.76 19.08 129.508 19.2 129.268 19.44C129.028 19.656 128.812 19.896 128.62 20.16C128.548 20.208 128.476 20.196 128.404 20.124C128.356 20.052 128.344 19.98 128.368 19.908C128.488 19.74 128.644 19.548 128.836 19.332C129.052 19.116 129.292 18.912 129.556 18.72C129.82 18.504 130.096 18.336 130.384 18.216C130.672 18.072 130.96 18 131.248 18C131.656 18 131.92 18.132 132.04 18.396C132.184 18.636 132.22 18.936 132.148 19.296C132.028 19.824 131.896 20.328 131.752 20.808C131.632 21.264 131.476 21.78 131.284 22.356C131.572 21.828 131.92 21.312 132.328 20.808C132.76 20.28 133.228 19.812 133.732 19.404C134.26 18.972 134.824 18.636 135.424 18.396C136.024 18.132 136.66 18 137.332 18C137.62 18 137.836 18.072 137.98 18.216C138.148 18.36 138.232 18.528 138.232 18.72C138.232 19.056 138.148 19.356 137.98 19.62C137.476 20.532 137.044 21.48 136.684 22.464C136.348 23.424 136.18 24.288 136.18 25.056C136.18 25.68 136.384 25.992 136.792 25.992C137.056 25.992 137.32 25.884 137.584 25.668C137.848 25.452 138.148 25.128 138.484 24.696Z" fill="#163300"/>
<path d="M149.725 24.948C149.773 24.9 149.833 24.9 149.905 24.948C149.977 24.996 150.001 25.068 149.977 25.164C149.545 25.788 149.065 26.292 148.537 26.676C148.009 27.036 147.505 27.216 147.025 27.216C146.473 27.216 146.113 26.832 145.945 26.064C145.801 25.272 145.885 24.336 146.197 23.256C145.549 24.288 144.841 25.176 144.073 25.92C143.329 26.64 142.537 27.072 141.697 27.216C141.121 27.216 140.677 26.952 140.365 26.424C140.053 25.896 139.897 25.284 139.897 24.588C139.897 23.796 140.089 23.016 140.473 22.248C140.857 21.456 141.361 20.748 141.985 20.124C142.633 19.5 143.341 18.996 144.109 18.612C144.901 18.204 145.693 18 146.485 18C147.325 18 147.985 18.204 148.465 18.612C148.705 18.444 149.005 18.3 149.365 18.18C149.749 18.06 150.085 18 150.373 18C150.469 18 150.517 18.06 150.517 18.18C149.965 18.852 149.485 19.596 149.077 20.412C148.693 21.204 148.393 21.972 148.177 22.716C147.961 23.436 147.829 24.084 147.781 24.66C147.733 25.236 147.781 25.632 147.925 25.848C148.045 25.992 148.249 26.04 148.537 25.992C148.825 25.92 149.221 25.572 149.725 24.948ZM142.813 25.884C143.101 25.884 143.449 25.704 143.857 25.344C144.289 24.984 144.733 24.504 145.189 23.904C145.645 23.304 146.089 22.632 146.521 21.888C146.977 21.144 147.373 20.388 147.709 19.62C147.613 19.308 147.385 19.056 147.025 18.864C146.689 18.672 146.293 18.576 145.837 18.576C145.285 18.576 144.769 18.72 144.289 19.008C143.809 19.272 143.389 19.656 143.029 20.16C142.693 20.64 142.417 21.228 142.201 21.924C142.009 22.596 141.913 23.34 141.913 24.156C141.913 24.684 141.997 25.104 142.165 25.416C142.357 25.728 142.573 25.884 142.813 25.884Z" fill="#163300"/>
<path d="M161.863 24.696C161.911 24.648 161.971 24.66 162.043 24.732C162.115 24.78 162.139 24.852 162.115 24.948C161.683 25.548 161.179 26.076 160.603 26.532C160.051 26.988 159.499 27.216 158.947 27.216C158.539 27.216 158.215 27.084 157.975 26.82C157.759 26.556 157.651 26.208 157.651 25.776C157.651 24.936 157.795 24.024 158.083 23.04C158.395 22.056 158.803 21.06 159.307 20.052C159.379 19.884 159.415 19.704 159.415 19.512C159.415 19.272 159.307 19.152 159.091 19.152C158.203 19.152 157.219 19.764 156.139 20.988C155.059 22.188 154.063 24.108 153.151 26.748C153.127 26.82 153.043 26.892 152.899 26.964C152.779 27.012 152.635 27.06 152.467 27.108C152.299 27.132 152.131 27.156 151.963 27.18C151.795 27.204 151.663 27.216 151.567 27.216C151.447 27.216 151.351 27.192 151.279 27.144C151.231 27.096 151.231 27.012 151.279 26.892C151.687 25.86 152.095 24.732 152.503 23.508C152.935 22.26 153.307 21.012 153.619 19.764C153.691 19.524 153.703 19.356 153.655 19.26C153.607 19.14 153.523 19.08 153.403 19.08C153.139 19.08 152.887 19.2 152.647 19.44C152.407 19.656 152.191 19.896 151.999 20.16C151.927 20.208 151.855 20.196 151.783 20.124C151.735 20.052 151.723 19.98 151.747 19.908C151.867 19.74 152.023 19.548 152.215 19.332C152.431 19.116 152.671 18.912 152.935 18.72C153.199 18.504 153.475 18.336 153.763 18.216C154.051 18.072 154.339 18 154.627 18C155.035 18 155.299 18.132 155.419 18.396C155.563 18.636 155.599 18.936 155.527 19.296C155.407 19.824 155.275 20.328 155.131 20.808C155.011 21.264 154.855 21.78 154.663 22.356C154.951 21.828 155.299 21.312 155.707 20.808C156.139 20.28 156.607 19.812 157.111 19.404C157.639 18.972 158.203 18.636 158.803 18.396C159.403 18.132 160.039 18 160.711 18C160.999 18 161.215 18.072 161.359 18.216C161.527 18.36 161.611 18.528 161.611 18.72C161.611 19.056 161.527 19.356 161.359 19.62C160.855 20.532 160.423 21.48 160.063 22.464C159.727 23.424 159.559 24.288 159.559 25.056C159.559 25.68 159.763 25.992 160.171 25.992C160.435 25.992 160.699 25.884 160.963 25.668C161.227 25.452 161.527 25.128 161.863 24.696Z" fill="#163300"/>
<path d="M184.408 0C184.768 0 185.056 0.0960002 185.272 0.288001C185.512 0.480001 185.68 0.732001 185.776 1.044C185.872 1.356 185.896 1.716 185.848 2.124C185.8 2.508 185.68 2.892 185.488 3.276C185.44 3.324 185.38 3.348 185.308 3.348C185.236 3.324 185.188 3.264 185.164 3.168C185.212 2.808 185.116 2.544 184.876 2.376C184.636 2.184 184.3 2.088 183.868 2.088C182.572 2.088 181.324 2.52 180.124 3.384C178.924 4.248 177.784 5.58 176.704 7.38C175.648 9.156 174.664 11.424 173.752 14.184C172.864 16.92 172.06 20.184 171.34 23.976C171.22 24.504 171.208 24.96 171.304 25.344C171.4 25.704 171.58 25.884 171.844 25.884C172.108 25.884 172.36 25.776 172.6 25.56C172.84 25.344 173.056 25.068 173.248 24.732C173.296 24.684 173.356 24.684 173.428 24.732C173.524 24.78 173.56 24.852 173.536 24.948C173.416 25.188 173.236 25.44 172.996 25.704C172.78 25.968 172.528 26.22 172.24 26.46C171.976 26.676 171.688 26.856 171.376 27C171.088 27.144 170.824 27.216 170.584 27.216C170.056 27.216 169.684 27.024 169.468 26.64C169.252 26.256 169.168 25.824 169.216 25.344C169.264 24.936 169.324 24.552 169.396 24.192C169.468 23.832 169.552 23.448 169.648 23.04C169.168 24.072 168.496 24.972 167.632 25.74C166.768 26.484 165.916 26.976 165.076 27.216C164.524 27.216 164.08 27.012 163.744 26.604C163.408 26.196 163.24 25.668 163.24 25.02C163.24 24.084 163.408 23.196 163.744 22.356C164.08 21.492 164.536 20.736 165.112 20.088C165.688 19.44 166.372 18.924 167.164 18.54C167.956 18.156 168.808 17.964 169.72 17.964C170.224 17.964 170.668 18.048 171.052 18.216C171.484 16.92 172 15.576 172.6 14.184C173.2 12.768 173.86 11.388 174.58 10.044C175.3 8.7 176.056 7.416 176.848 6.192C177.664 4.968 178.492 3.9 179.332 2.988C180.172 2.076 181.024 1.356 181.888 0.828C182.752 0.276 183.592 0 184.408 0ZM166.228 25.812C166.492 25.812 166.804 25.68 167.164 25.416C167.524 25.128 167.896 24.756 168.28 24.3C168.664 23.82 169.024 23.28 169.36 22.68C169.696 22.056 169.984 21.396 170.224 20.7C170.32 20.484 170.404 20.268 170.476 20.052C170.548 19.812 170.608 19.584 170.656 19.368C170.56 19.08 170.368 18.876 170.08 18.756C169.816 18.612 169.516 18.54 169.18 18.54C168.676 18.54 168.184 18.696 167.704 19.008C167.224 19.296 166.804 19.704 166.444 20.232C166.084 20.76 165.784 21.384 165.544 22.104C165.328 22.824 165.22 23.616 165.22 24.48C165.22 24.864 165.304 25.188 165.472 25.452C165.664 25.692 165.916 25.812 166.228 25.812Z" fill="#163300"/>
<path d="M182.118 19.8C182.118 21.168 180.306 22.104 176.682 22.608C176.658 22.848 176.634 23.088 176.61 23.328C176.61 23.568 176.61 23.82 176.61 24.084C176.61 24.708 176.754 25.188 177.042 25.524C177.33 25.86 177.786 26.028 178.41 26.028C178.866 26.028 179.334 25.896 179.814 25.632C180.294 25.368 180.678 25.032 180.966 24.624C181.062 24.576 181.134 24.6 181.182 24.696C181.23 24.768 181.242 24.852 181.218 24.948C180.738 25.572 180.126 26.112 179.382 26.568C178.662 27 177.882 27.216 177.042 27.216C176.202 27.216 175.59 27.012 175.206 26.604C174.846 26.172 174.666 25.572 174.666 24.804C174.666 24.06 174.822 23.292 175.134 22.5C175.446 21.684 175.842 20.94 176.322 20.268C176.826 19.596 177.39 19.056 178.014 18.648C178.662 18.216 179.31 18 179.958 18C180.606 18 181.122 18.192 181.506 18.576C181.914 18.936 182.118 19.344 182.118 19.8ZM178.986 18.936C178.434 18.936 177.954 19.2 177.546 19.728C177.162 20.232 176.898 21.024 176.754 22.104C177.906 21.984 178.758 21.768 179.31 21.456C179.862 21.12 180.138 20.712 180.138 20.232C180.138 19.872 180.03 19.572 179.814 19.332C179.598 19.068 179.322 18.936 178.986 18.936Z" fill="#163300"/>
<path d="M187.709 18C188.237 18 188.657 18.072 188.969 18.216C189.305 18.36 189.473 18.54 189.473 18.756C189.473 19.02 189.401 19.32 189.257 19.656C189.137 19.992 189.017 20.268 188.897 20.484C188.849 20.532 188.789 20.544 188.717 20.52C188.645 20.472 188.609 20.4 188.609 20.304C188.681 20.136 188.717 19.896 188.717 19.584C188.717 19.248 188.621 18.972 188.429 18.756C188.261 18.54 188.021 18.432 187.709 18.432C187.301 18.432 186.965 18.564 186.701 18.828C186.461 19.068 186.341 19.416 186.341 19.872C186.341 20.256 186.437 20.628 186.629 20.988C186.845 21.324 187.073 21.672 187.313 22.032C187.577 22.368 187.817 22.74 188.033 23.148C188.249 23.532 188.357 23.976 188.357 24.48C188.357 25.344 188.009 26.016 187.313 26.496C186.617 26.976 185.705 27.216 184.577 27.216C183.761 27.216 183.113 27.084 182.633 26.82C182.177 26.556 181.949 26.268 181.949 25.956C181.949 25.86 181.985 25.728 182.057 25.56C182.129 25.392 182.225 25.212 182.345 25.02C182.465 24.828 182.597 24.636 182.741 24.444C182.885 24.252 183.041 24.096 183.209 23.976C183.281 23.928 183.341 23.94 183.389 24.012C183.461 24.084 183.473 24.156 183.425 24.228C183.281 24.372 183.173 24.528 183.101 24.696C183.029 24.84 182.993 25.044 182.993 25.308C182.993 25.74 183.137 26.1 183.425 26.388C183.713 26.652 184.085 26.784 184.541 26.784C185.165 26.784 185.645 26.616 185.981 26.28C186.341 25.92 186.521 25.488 186.521 24.984C186.521 24.528 186.413 24.108 186.197 23.724C186.005 23.316 185.789 22.932 185.549 22.572C185.309 22.188 185.081 21.804 184.865 21.42C184.673 21.036 184.577 20.628 184.577 20.196C184.577 19.572 184.841 19.056 185.369 18.648C185.897 18.216 186.677 18 187.709 18Z" fill="#163300"/>
<path d="M36.812 43.216V35.272H37.856L42.764 41.956V35.272H43.664V43.216H42.62L37.712 36.508V43.216H36.812Z" fill="#163300"/>
<path d="M51.2888 43.312C50.6328 43.312 50.0488 43.168 49.5368 42.88C49.0328 42.584 48.6368 42.172 48.3488 41.644C48.0608 41.116 47.9168 40.5 47.9168 39.796V35.272H48.8168V39.82C48.8168 40.436 48.9328 40.936 49.1648 41.32C49.4048 41.704 49.7128 41.988 50.0888 42.172C50.4728 42.348 50.8728 42.436 51.2888 42.436C51.7128 42.436 52.1128 42.348 52.4888 42.172C52.8648 41.988 53.1728 41.704 53.4128 41.32C53.6528 40.936 53.7728 40.436 53.7728 39.82V35.272H54.6728V39.796C54.6728 40.492 54.5288 41.104 54.2408 41.632C53.9528 42.16 53.5528 42.572 53.0408 42.868C52.5368 43.164 51.9528 43.312 51.2888 43.312Z" fill="#163300"/>
<path d="M60.8886 43.216V36.124H58.1166V35.272H64.5606V36.124H61.7886V43.216H60.8886Z" fill="#163300"/>
<path d="M68.1058 43.216V35.272H71.9098C72.7258 35.272 73.3738 35.496 73.8538 35.944C74.3418 36.392 74.5858 36.996 74.5858 37.756C74.5858 38.268 74.4858 38.676 74.2858 38.98C74.0938 39.284 73.8497 39.516 73.5537 39.676C73.2577 39.828 72.9617 39.94 72.6657 40.012L74.7538 43.216H73.6858L71.7657 40.168H69.0058V43.216H68.1058ZM69.0058 39.316H71.7538C72.0418 39.316 72.3338 39.272 72.6298 39.184C72.9258 39.096 73.1737 38.94 73.3737 38.716C73.5817 38.484 73.6858 38.164 73.6858 37.756C73.6858 37.252 73.5138 36.856 73.1698 36.568C72.8258 36.272 72.3698 36.124 71.8018 36.124H69.0058V39.316Z" fill="#163300"/>
<path d="M78.5331 43.216V35.272H79.4331V43.216H78.5331Z" fill="#163300"/>
<path d="M87.1168 43.312C86.3248 43.312 85.6408 43.132 85.0648 42.772C84.4888 42.404 84.0447 41.912 83.7327 41.296C83.4287 40.68 83.2767 39.996 83.2767 39.244C83.2767 38.492 83.4287 37.808 83.7327 37.192C84.0447 36.576 84.4888 36.088 85.0648 35.728C85.6408 35.36 86.3248 35.176 87.1168 35.176C87.7168 35.176 88.2567 35.284 88.7367 35.5C89.2167 35.708 89.6247 35.996 89.9607 36.364C90.2967 36.732 90.5488 37.16 90.7168 37.648H89.7688C89.5688 37.16 89.2527 36.772 88.8207 36.484C88.3887 36.196 87.8448 36.052 87.1888 36.052C86.5488 36.052 86.0007 36.196 85.5447 36.484C85.0967 36.764 84.7567 37.144 84.5247 37.624C84.2927 38.104 84.1768 38.644 84.1768 39.244C84.1768 39.836 84.2927 40.376 84.5247 40.864C84.7567 41.344 85.0967 41.728 85.5447 42.016C86.0007 42.296 86.5488 42.436 87.1888 42.436C87.8448 42.436 88.3887 42.292 88.8207 42.004C89.2527 41.716 89.5688 41.328 89.7688 40.84H90.7168C90.5488 41.32 90.2967 41.748 89.9607 42.124C89.6247 42.492 89.2167 42.784 88.7367 43C88.2567 43.208 87.7168 43.312 87.1168 43.312Z" fill="#163300"/>
<path d="M94.4659 43.216V35.272H95.3659V43.216H94.4659Z" fill="#163300"/>
<path d="M103.242 43.312C102.642 43.312 102.094 43.208 101.598 43C101.102 42.792 100.674 42.5 100.314 42.124C99.9616 41.748 99.6896 41.316 99.4976 40.828C99.3056 40.332 99.2096 39.804 99.2096 39.244C99.2096 38.676 99.3056 38.148 99.4976 37.66C99.6896 37.172 99.9616 36.74 100.314 36.364C100.674 35.988 101.102 35.696 101.598 35.488C102.094 35.28 102.642 35.176 103.242 35.176C103.842 35.176 104.39 35.28 104.886 35.488C105.382 35.696 105.806 35.988 106.158 36.364C106.518 36.74 106.794 37.172 106.986 37.66C107.178 38.148 107.274 38.676 107.274 39.244C107.274 39.804 107.178 40.332 106.986 40.828C106.794 41.316 106.518 41.748 106.158 42.124C105.806 42.5 105.382 42.792 104.886 43C104.39 43.208 103.842 43.312 103.242 43.312ZM103.242 42.436C103.89 42.436 104.446 42.296 104.91 42.016C105.382 41.728 105.742 41.344 105.99 40.864C106.246 40.376 106.374 39.836 106.374 39.244C106.374 38.644 106.246 38.104 105.99 37.624C105.742 37.144 105.382 36.764 104.91 36.484C104.446 36.196 103.89 36.052 103.242 36.052C102.602 36.052 102.046 36.196 101.574 36.484C101.102 36.764 100.738 37.144 100.482 37.624C100.234 38.104 100.11 38.644 100.11 39.244C100.11 39.836 100.234 40.376 100.482 40.864C100.738 41.344 101.102 41.728 101.574 42.016C102.046 42.296 102.602 42.436 103.242 42.436Z" fill="#163300"/>
<path d="M111.114 43.216V35.272H112.158L117.066 41.956V35.272H117.966V43.216H116.922L112.014 36.508V43.216H111.114Z" fill="#163300"/>
<path d="M122.314 43.216V35.272H123.214V43.216H122.314Z" fill="#163300"/>
<path d="M130.406 43.312C129.622 43.312 128.986 43.208 128.498 43C128.01 42.784 127.642 42.488 127.394 42.112C127.154 41.736 127.014 41.312 126.974 40.84H127.91C127.934 41.224 128.062 41.536 128.294 41.776C128.526 42.008 128.83 42.18 129.206 42.292C129.59 42.404 130.01 42.46 130.466 42.46C131.138 42.46 131.67 42.344 132.062 42.112C132.454 41.872 132.65 41.52 132.65 41.056C132.65 40.776 132.55 40.552 132.35 40.384C132.158 40.208 131.898 40.064 131.57 39.952C131.25 39.84 130.898 39.74 130.514 39.652C130.13 39.556 129.742 39.456 129.35 39.352C128.966 39.248 128.61 39.116 128.282 38.956C127.962 38.796 127.702 38.592 127.502 38.344C127.31 38.088 127.214 37.764 127.214 37.372C127.214 36.724 127.462 36.196 127.958 35.788C128.462 35.38 129.21 35.176 130.202 35.176C130.906 35.176 131.486 35.284 131.942 35.5C132.398 35.708 132.738 35.984 132.962 36.328C133.194 36.672 133.322 37.044 133.346 37.444H132.422C132.374 37.044 132.174 36.708 131.822 36.436C131.47 36.156 130.93 36.016 130.202 36.016C129.754 36.016 129.39 36.06 129.11 36.148C128.83 36.236 128.614 36.352 128.462 36.496C128.318 36.632 128.218 36.776 128.162 36.928C128.114 37.08 128.09 37.224 128.09 37.36C128.09 37.624 128.186 37.84 128.378 38.008C128.578 38.168 128.838 38.304 129.158 38.416C129.486 38.52 129.846 38.616 130.238 38.704C130.63 38.792 131.018 38.892 131.402 39.004C131.794 39.108 132.15 39.244 132.47 39.412C132.798 39.572 133.058 39.78 133.25 40.036C133.45 40.292 133.55 40.62 133.55 41.02C133.55 41.756 133.27 42.324 132.71 42.724C132.15 43.116 131.382 43.312 130.406 43.312Z" fill="#163300"/>
<path d="M139.313 43.216V36.124H136.541V35.272H142.985V36.124H140.213V43.216H139.313Z" fill="#163300"/>
<path d="M144.891 43.216L148.263 35.272H149.391L152.763 43.216H151.767L150.795 40.912H146.859L145.887 43.216H144.891ZM147.207 40.084H150.447L148.827 36.208L147.207 40.084Z" fill="#163300"/>
</svg>
