<svg xmlns="http://www.w3.org/2000/svg" height="24" viewBox="0 -960 960 960" width="24"><path d="M551.846-127.846q3.846 1.538 6.923 1.538t6.923-1.538l232.616-71.693q-1.154-18.23-10.89-26.269-9.736-8.038-22.033-8.038H575.598q-25.367 0-45.983-2-20.615-2-42.23-9.539l-68.539-22.077q-8.205-2.692-11.795-10.769t-.897-16q2.692-7.923 10.269-11.577t15.885-.961l62 22.461q19.307 6.538 42.73 8.385 23.423 1.846 57.949 2.077h10.398q0-18.693-6.885-30.231-6.885-11.539-19.731-16.077l-230.154-84.462q-2.307-.769-4.23-1.153-1.923-.385-4.231-.385h-84v192.308l295.692 86Zm-10.231 39.538-285.461-83.538q-5.692 23.692-24.192 37.769Q213.462-120 191.539-120h-30.77q-26.654 0-45.635-18.981-18.98-18.98-18.98-45.634v-196.924q0-26.654 18.98-45.634 18.981-18.981 45.635-18.981h178.499q5.578 0 11.501 1.269 5.923 1.269 11 2.961l231.154 84.693q21.462 8.154 36.962 29.308 15.5 21.153 15.5 54.077h120q36.154 0 55.384 22.615Q840-228.616 840-193.846q0 12-6.5 20.269-6.5 8.269-18.961 12.423L579.154-88.538q-8.692 2.461-18.385 2.846-9.692.384-19.154-2.616Zm-405.461-96.307q0 10.769 6.923 17.692T160.769-160h30.77q10.769 0 17.692-5.769t6.923-18.846v-221.539h-55.385q-10.769 0-17.692 6.923t-6.923 17.692v196.924Zm491.528-305.077q-11.913 0-23.42-4.346-11.508-4.347-21.031-13.039L477.077-608.923q-26.385-25.385-44.039-56.802-17.653-31.417-17.653-68.429 0-44.103 30.871-74.974Q477.128-840 521.231-840q32.769 0 59.615 17.73 26.846 17.731 46.846 43.039 20-25.308 46.847-43.039Q701.385-840 734.154-840q44.103 0 74.974 30.872Q840-778.257 840-734.154q0 37.012-17.538 68.429-17.539 31.417-43.923 56.802L672.154-507.077q-9.53 8.692-21.045 13.039-11.515 4.346-23.427 4.346Zm16.933-46.154 102.847-98.539q21.307-20.538 36.923-45.5Q800-704.846 800-734.154q0-27.385-19.231-46.615Q761.539-800 734.154-800q-24 0-43.038 14.346-19.039 14.346-34.193 33.808l-6.692 8.077q-8.677 10.923-22.416 10.923-13.738 0-22.661-10.923l-6.693-8.077q-15.153-19.462-34.192-33.808Q545.231-800 521.231-800q-27.385 0-46.615 19.231-19.231 19.23-19.231 46.615 0 29.308 15.615 54.269 15.616 24.962 36.923 45.5l102.846 98.539q6.923 6.923 16.923 6.923 10 0 16.923-6.923Zm-16.923-179.385Z"/></svg>