<svg width="24" height="24" viewBox="0 0 24 24" fill="none" xmlns="http://www.w3.org/2000/svg">
<path d="M6 21C5.4359 21 4.96154 20.8077 4.57692 20.4231C4.19231 20.0385 4 19.5641 4 19V17.8077C4 17.5756 4.0766 17.383 4.2298 17.2298C4.383 17.0766 4.57563 17 4.80768 17H7V3.77309C7 3.68205 7.03397 3.62211 7.10192 3.59326C7.16987 3.56443 7.2391 3.57245 7.3096 3.61731L8.05385 4.11154C8.1282 4.16026 8.19999 4.18461 8.26923 4.18461C8.33846 4.18461 8.41025 4.16026 8.4846 4.11154L9.36153 3.54231C9.43589 3.4936 9.50769 3.46924 9.57692 3.46924C9.64616 3.46924 9.71795 3.4936 9.7923 3.54231L10.6692 4.11154C10.7436 4.16026 10.8154 4.18461 10.8846 4.18461C10.9538 4.18461 11.0256 4.16026 11.1 4.11154L11.9769 3.54231C12.0513 3.4936 12.1231 3.46924 12.1923 3.46924C12.2615 3.46924 12.3333 3.4936 12.4077 3.54231L13.2846 4.11154C13.359 4.16026 13.4308 4.18461 13.5 4.18461C13.5692 4.18461 13.641 4.16026 13.7154 4.11154L14.5923 3.54231C14.6667 3.4936 14.7385 3.46924 14.8077 3.46924C14.8769 3.46924 14.9487 3.4936 15.0231 3.54231L15.9 4.11154C15.9744 4.16026 16.0462 4.18461 16.1154 4.18461C16.1846 4.18461 16.2564 4.16026 16.3308 4.11154L17.2077 3.54231C17.2821 3.4936 17.3538 3.46924 17.4231 3.46924C17.4923 3.46924 17.5641 3.4936 17.6385 3.54231L18.5154 4.11154C18.5898 4.16026 18.6615 4.18461 18.7308 4.18461C18.8 4.18461 18.8718 4.16026 18.9462 4.11154L19.6904 3.61731C19.7609 3.57245 19.8301 3.56443 19.8981 3.59326C19.966 3.62211 20 3.68205 20 3.77309V19C20 19.5641 19.8077 20.0385 19.4231 20.4231C19.0385 20.8077 18.5641 21 18 21H6ZM18 20C18.2833 20 18.5208 19.9042 18.7125 19.7125C18.9042 19.5208 19 19.2833 19 19V5.00001H8V17H16.1923C16.4244 17 16.617 17.0766 16.7702 17.2298C16.9234 17.383 17 17.5756 17 17.8077V19C17 19.2833 17.0958 19.5208 17.2875 19.7125C17.4792 19.9042 17.7167 20 18 20ZM9.88463 7.50001H14.2308C14.3731 7.50001 14.492 7.54777 14.5875 7.64329C14.683 7.73879 14.7308 7.8577 14.7308 8.00001C14.7308 8.14233 14.683 8.26124 14.5875 8.35674C14.492 8.45226 14.3731 8.50001 14.2308 8.50001H9.88463C9.74231 8.50001 9.62339 8.45226 9.52787 8.35674C9.43237 8.26124 9.38463 8.14233 9.38463 8.00001C9.38463 7.8577 9.43237 7.73879 9.52787 7.64329C9.62339 7.54777 9.74231 7.50001 9.88463 7.50001ZM9.88463 10.5H14.2308C14.3731 10.5 14.492 10.5478 14.5875 10.6433C14.683 10.7388 14.7308 10.8577 14.7308 11C14.7308 11.1423 14.683 11.2612 14.5875 11.3567C14.492 11.4523 14.3731 11.5 14.2308 11.5H9.88463C9.74231 11.5 9.62339 11.4523 9.52787 11.3567C9.43237 11.2612 9.38463 11.1423 9.38463 11C9.38463 10.8577 9.43237 10.7388 9.52787 10.6433C9.62339 10.5478 9.74231 10.5 9.88463 10.5ZM16.8846 8.76924C16.6782 8.76924 16.4984 8.69264 16.3452 8.53944C16.192 8.38624 16.1154 8.20643 16.1154 8.00001C16.1154 7.7936 16.192 7.61379 16.3452 7.46059C16.4984 7.30739 16.6782 7.23079 16.8846 7.23079C17.091 7.23079 17.2708 7.30739 17.424 7.46059C17.5772 7.61379 17.6538 7.7936 17.6538 8.00001C17.6538 8.20643 17.5772 8.38624 17.424 8.53944C17.2708 8.69264 17.091 8.76924 16.8846 8.76924ZM16.8846 11.7692C16.6782 11.7692 16.4984 11.6926 16.3452 11.5394C16.192 11.3862 16.1154 11.2064 16.1154 11C16.1154 10.7936 16.192 10.6138 16.3452 10.4606C16.4984 10.3074 16.6782 10.2308 16.8846 10.2308C17.091 10.2308 17.2708 10.3074 17.424 10.4606C17.5772 10.6138 17.6538 10.7936 17.6538 11C17.6538 11.2064 17.5772 11.3862 17.424 11.5394C17.2708 11.6926 17.091 11.7692 16.8846 11.7692ZM6 20H16V18H5V19C5 19.2833 5.09583 19.5208 5.2875 19.7125C5.47917 19.9042 5.71667 20 6 20Z" fill="white"/>
</svg>
