<svg width="24" height="24" viewBox="0 0 24 24" fill="none" xmlns="http://www.w3.org/2000/svg">
<path d="M3 24C2.15385 24 1.44231 23.7367 0.865387 23.2102C0.288462 22.6836 0 22.0342 0 21.262V19.6296C0 19.312 0.1149 19.0483 0.3447 18.8385C0.5745 18.6288 0.863438 18.5239 1.21151 18.5239H4.5V0.415977C4.5 0.29135 4.55096 0.209289 4.65289 0.169793C4.75481 0.130319 4.85865 0.141296 4.9644 0.202719L6.08077 0.879323C6.1923 0.946017 6.29999 0.979363 6.40384 0.979363C6.50769 0.979363 6.61538 0.946017 6.7269 0.879323L8.04229 0.100042C8.15384 0.0333483 8.26154 0 8.36539 0C8.46924 0 8.57692 0.0333483 8.68845 0.100042L10.0038 0.879323C10.1154 0.946017 10.2231 0.979363 10.3269 0.979363C10.4308 0.979363 10.5385 0.946017 10.65 0.879323L11.9654 0.100042C12.0769 0.0333483 12.1846 0 12.2884 0C12.3923 0 12.5 0.0333483 12.6116 0.100042L13.9269 0.879323C14.0385 0.946017 14.1462 0.979363 14.25 0.979363C14.3539 0.979363 14.4615 0.946017 14.5731 0.879323L15.8885 0.100042C16 0.0333483 16.1077 0 16.2116 0C16.3154 0 16.4231 0.0333483 16.5346 0.100042L17.85 0.879323C17.9616 0.946017 18.0692 0.979363 18.1731 0.979363C18.2769 0.979363 18.3846 0.946017 18.4962 0.879323L19.8116 0.100042C19.9231 0.0333483 20.0308 0 20.1346 0C20.2385 0 20.3462 0.0333483 20.4577 0.100042L21.7731 0.879323C21.8846 0.946017 21.9923 0.979363 22.0962 0.979363C22.2 0.979363 22.3077 0.946017 22.4192 0.879323L23.5356 0.202719C23.6414 0.141296 23.7452 0.130319 23.8471 0.169793C23.949 0.209289 24 0.29135 24 0.415977V21.262C24 22.0342 23.7115 22.6836 23.1346 23.2102C22.5577 23.7367 21.8462 24 21 24H3ZM21 22.631C21.425 22.631 21.7813 22.4998 22.0688 22.2374C22.3563 21.975 22.5 21.6498 22.5 21.262V2.09566H6V18.5239H18.2885C18.6365 18.5239 18.9255 18.6288 19.1553 18.8385C19.3851 19.0483 19.5 19.312 19.5 19.6296V21.262C19.5 21.6498 19.6438 21.975 19.9313 22.2374C20.2188 22.4998 20.575 22.631 21 22.631ZM8.82694 5.51822H15.3462C15.5596 5.51822 15.738 5.5836 15.8813 5.71436C16.0245 5.84511 16.0962 6.00789 16.0962 6.20273C16.0962 6.39756 16.0245 6.56035 15.8813 6.69109C15.738 6.82185 15.5596 6.88724 15.3462 6.88724H8.82694C8.61346 6.88724 8.43509 6.82185 8.29181 6.69109C8.14856 6.56035 8.07694 6.39756 8.07694 6.20273C8.07694 6.00789 8.14856 5.84511 8.29181 5.71436C8.43509 5.5836 8.61346 5.51822 8.82694 5.51822ZM8.82694 9.62528H15.3462C15.5596 9.62528 15.738 9.69066 15.8813 9.82143C16.0245 9.95217 16.0962 10.115 16.0962 10.3098C16.0962 10.5046 16.0245 10.6674 15.8813 10.7982C15.738 10.9289 15.5596 10.9943 15.3462 10.9943H8.82694C8.61346 10.9943 8.43509 10.9289 8.29181 10.7982C8.14856 10.6674 8.07694 10.5046 8.07694 10.3098C8.07694 10.115 8.14856 9.95217 8.29181 9.82143C8.43509 9.69066 8.61346 9.62528 8.82694 9.62528ZM19.3269 7.25581C19.0173 7.25581 18.7476 7.15095 18.5178 6.94121C18.288 6.73148 18.1731 6.48532 18.1731 6.20273C18.1731 5.92014 18.288 5.67398 18.5178 5.46424C18.7476 5.25451 19.0173 5.14964 19.3269 5.14964C19.6365 5.14964 19.9062 5.25451 20.1361 5.46424C20.3659 5.67398 20.4808 5.92014 20.4808 6.20273C20.4808 6.48532 20.3659 6.73148 20.1361 6.94121C19.9062 7.15095 19.6365 7.25581 19.3269 7.25581ZM19.3269 11.3629C19.0173 11.3629 18.7476 11.258 18.5178 11.0483C18.288 10.8385 18.1731 10.5924 18.1731 10.3098C18.1731 10.0272 18.288 9.78104 18.5178 9.57131C18.7476 9.36157 19.0173 9.25671 19.3269 9.25671C19.6365 9.25671 19.9062 9.36157 20.1361 9.57131C20.3659 9.78104 20.4808 10.0272 20.4808 10.3098C20.4808 10.5924 20.3659 10.8385 20.1361 11.0483C19.9062 11.258 19.6365 11.3629 19.3269 11.3629ZM3 22.631H18V19.8929H1.5V21.262C1.5 21.6498 1.64375 21.975 1.93125 22.2374C2.21875 22.4998 2.575 22.631 3 22.631Z" fill="white"/>
</svg>
