<svg width="24" height="24" viewBox="0 0 24 24" fill="none" xmlns="http://www.w3.org/2000/svg">
<path d="M15.0388 6.56953L15.0916 6.51914C15.4493 6.18293 15.7248 5.77559 15.8984 5.32617C16.072 4.87675 16.1393 4.39634 16.0957 3.91924C16.0772 3.68456 15.971 3.464 15.7965 3.29759C15.6219 3.13118 15.3906 3.02996 15.1445 3.01229C14.644 2.9707 14.1401 3.03494 13.6688 3.20042C13.1974 3.36591 12.7701 3.62856 12.4175 3.96962C11.9884 4.37681 11.6786 4.88407 11.5191 5.44089C10.8202 4.55072 9.81267 3.92582 8.67587 3.67739C8.60785 3.66283 8.5375 3.66119 8.46882 3.67255C8.40014 3.68392 8.33449 3.70807 8.2756 3.74363C8.21671 3.77919 8.16574 3.82546 8.12561 3.87979C8.08548 3.93413 8.05696 3.99547 8.04169 4.06032C8.02642 4.12516 8.0247 4.19224 8.03662 4.25772C8.04854 4.3232 8.07388 4.38579 8.11117 4.44194C8.14847 4.49808 8.197 4.54668 8.25399 4.58494C8.31098 4.6232 8.37532 4.65039 8.44334 4.66495C9.0535 4.79623 9.62124 5.06647 10.098 5.45255C10.5747 5.83864 10.9463 6.32908 11.1809 6.88192C10.5361 6.66416 9.8566 6.55504 9.17264 6.55945C7.53615 6.56132 5.96726 7.18195 4.81009 8.2852C3.65292 9.38846 3.00196 10.8843 3 12.4445C3 15.4475 5.54727 21 9.17264 21C10.0477 20.9993 10.9125 20.8207 11.7093 20.476C11.8024 20.4361 11.9033 20.4155 12.0053 20.4155C12.1073 20.4155 12.2082 20.4361 12.3012 20.476C13.0907 20.8206 13.9486 20.9993 14.8168 21C18.4527 21 21 15.4475 21 12.4445C20.9987 10.9196 20.3765 9.45471 19.2644 8.35871C18.1523 7.26272 16.6373 6.62125 15.0388 6.56953ZM13.1679 4.6851C13.412 4.44934 13.7062 4.26619 14.0307 4.14799C14.3552 4.02978 14.7026 3.97927 15.0493 3.99985C15.0493 4.06032 15.0599 4.12078 15.0599 4.17117C15.059 4.78606 14.8046 5.37597 14.3517 5.81374C14.1023 6.04409 13.8052 6.22224 13.4794 6.33677C13.1536 6.4513 12.8063 6.49969 12.4598 6.47883C12.4331 6.14867 12.4826 5.81693 12.605 5.50701C12.7273 5.19709 12.9195 4.91653 13.1679 4.6851ZM14.8168 19.9923C14.0983 19.9904 13.3885 19.8427 12.7346 19.559C12.5051 19.461 12.2567 19.4095 12.0053 19.4078C11.7536 19.4074 11.5048 19.459 11.276 19.559C10.6146 19.8428 9.89791 19.9905 9.17264 19.9923C6.44568 19.9923 4.05696 15.2863 4.05696 12.4445C4.05962 11.6304 4.27534 10.8297 4.68456 10.1151C5.09379 9.40058 5.68359 8.79467 6.40049 8.35234C7.1174 7.91002 7.93875 7.64525 8.79011 7.58205C9.64146 7.51885 10.4959 7.65921 11.276 7.9904C11.4973 8.09031 11.7392 8.14194 11.9841 8.14156H12.0053C12.2569 8.14091 12.5054 8.08939 12.7346 7.9904C13.3892 7.70983 14.0991 7.56554 14.8168 7.56716C16.1744 7.56769 17.4763 8.0814 18.4373 8.99568C19.3982 9.90995 19.9397 11.1502 19.943 12.4445C19.943 15.2863 17.5437 19.9923 14.8168 19.9923Z" fill="#163300" stroke="#163300" stroke-width="0.000725"/>
</svg>
