<svg width="42" height="42" viewBox="0 0 42 42" fill="none" xmlns="http://www.w3.org/2000/svg">
<rect width="42" height="42" rx="21" fill="#2E481A"/>
<path d="M20.3087 15.5923L14.8702 21.0308C14.7728 21.1282 14.658 21.1792 14.526 21.1837C14.3939 21.1881 14.2728 21.1353 14.1625 21.025C14.0561 20.9148 14.002 20.7968 14 20.6712C13.9981 20.5455 14.0523 20.4276 14.1625 20.3173L20.2433 14.2365C20.3305 14.1493 20.4196 14.0881 20.5106 14.0529C20.6016 14.0176 20.701 14 20.8087 14C20.9164 14 21.0158 14.0176 21.1068 14.0529C21.1978 14.0881 21.2869 14.1493 21.3741 14.2365L27.4548 20.3173C27.5484 20.4109 27.5984 20.5247 27.6048 20.6587C27.6113 20.7926 27.5613 20.9148 27.4548 21.025C27.3446 21.1353 27.2257 21.1904 27.0981 21.1904C26.9706 21.1904 26.8516 21.1353 26.7414 21.025L21.3087 15.5923V27.1712C21.3087 27.3135 21.2609 27.4324 21.1654 27.5279C21.0699 27.6234 20.951 27.6712 20.8087 27.6712C20.6664 27.6712 20.5475 27.6234 20.452 27.5279C20.3565 27.4324 20.3087 27.3135 20.3087 27.1712V15.5923Z" fill="#EDEFEB"/>
</svg>
