<svg width="24" height="24" viewBox="0 0 24 24" fill="none" xmlns="http://www.w3.org/2000/svg">
<path d="M10.4 22.5962C10.0645 21.9835 9.63581 21.418 9.11395 20.8996C8.59209 20.3812 7.97704 19.8981 7.2688 19.4504C6.56055 19.0027 5.7964 18.6137 4.97633 18.2835C4.15626 17.9532 3.26164 17.6828 2.29247 17.4722C2.36702 18.1507 2.62795 18.7825 3.07526 19.3674C3.52257 19.9523 4.11898 20.4787 4.8645 20.9467C5.61002 21.4146 6.44873 21.7903 7.38062 22.0738C8.31252 22.3573 9.31897 22.5314 10.4 22.5962ZM13.643 22.5962C14.724 22.544 15.7344 22.3775 16.6743 22.0967C17.6142 21.816 18.46 21.4416 19.2119 20.9737C19.9638 20.5057 20.5634 19.9748 21.0107 19.3809C21.458 18.7869 21.7233 18.1507 21.8064 17.4722C20.8441 17.6828 19.9465 17.9519 19.1137 18.2794C18.281 18.607 17.513 18.993 16.8097 19.4376C16.1065 19.8821 15.4885 20.3676 14.9558 20.894C14.4231 21.4205 13.9855 21.9879 13.643 22.5962ZM12.043 11.0416C14.4172 11.0416 16.4301 10.5233 18.0817 9.48661C19.7333 8.44994 20.5591 7.1865 20.5591 5.69629V3.2018L16.6452 5.27244L12.043 1.44703L7.44084 5.27244L3.52688 3.2018V5.69629C3.52688 7.1865 4.35269 8.44994 6.00431 9.48661C7.65593 10.5233 9.66882 11.0416 12.043 11.0416ZM11.1828 24C8.07645 24 5.43607 23.3176 3.26162 21.9528C1.08721 20.5879 0 18.9306 0 16.9809V15.739C2.35986 15.9676 4.51327 16.5003 6.46023 17.3372C8.40715 18.1741 9.89531 19.1982 10.9247 20.4094V12.4212C8.20645 12.2556 5.92114 11.5343 4.06879 10.2574C2.21648 8.98044 1.29032 7.46008 1.29032 5.69629V2.59707C1.29032 2.09673 1.64732 1.75072 2.3613 1.55905C3.07528 1.36738 3.719 1.43443 4.29245 1.76018L7.1398 3.30439L10.6108 0.43736C10.9824 0.145786 11.4624 0 12.0507 0C12.6391 0 13.114 0.145786 13.4752 0.43736L16.9462 3.30439L19.7935 1.76018C20.367 1.43443 21.0107 1.36738 21.7247 1.55905C22.4387 1.75072 22.7957 2.09673 22.7957 2.59707V5.69629C22.7957 7.46008 21.8695 8.98044 20.0172 10.2574C18.1649 11.5343 15.8795 12.2556 13.1613 12.4212V20.3824C14.1907 19.1892 15.6717 18.1741 17.6043 17.3372C19.5369 16.5003 21.6688 15.9676 24 15.739V16.9809C24 18.9306 22.917 20.5879 20.7509 21.9528C18.5848 23.3176 15.9546 24 12.8602 24H11.1828Z" fill="#163300"/>
</svg>
