<svg width="100" height="70" viewBox="0 0 100 70" fill="none" xmlns="http://www.w3.org/2000/svg">
<path d="M0 48.8257L7.82487 0.282639C7.86694 0.0942128 7.97212 0 8.14039 0H17.2904C17.4587 0 17.5639 0.0942128 17.606 0.282639L25.1153 48.8257C25.1574 49.0612 25.0733 49.179 24.8629 49.179H17.8584C17.6901 49.179 17.5849 49.0612 17.5429 48.8257L16.8487 43.6676H8.2666L7.57246 48.8257C7.53039 49.0612 7.42522 49.179 7.25694 49.179H0.252415C0.0841384 49.179 0 49.0612 0 48.8257ZM9.52868 36.107H15.5866L12.9994 16.2517L12.6208 13.6373L12.3683 16.2517L9.52868 36.107Z" fill="#FFBB00"/>
<path d="M29.328 49.179C29.1597 49.179 29.0756 49.0612 29.0756 48.8257L29.1387 0.353297C29.1387 0.117766 29.2439 0 29.4542 0H36.4587C36.6691 0 36.7742 0.117766 36.7742 0.353297L36.7111 40.4879H49.7105C49.9209 40.4879 50.026 40.6057 50.026 40.8412V48.8257C50.026 49.0612 49.9209 49.179 49.7105 49.179H29.328Z" fill="#FFBB00"/>
<path d="M54.4724 49.179C54.2621 49.179 54.1569 49.0612 54.1569 48.8257L54.2831 0.282639C54.2831 0.0942128 54.3672 0 54.5355 0H74.7287C74.9391 0 75.0442 0.0942128 75.0442 0.282639V8.26716C75.0442 8.45558 74.9601 8.5498 74.7918 8.5498H61.8555V19.502H74.7918C74.9601 19.502 75.0442 19.6198 75.0442 19.8553L75.1073 27.8398C75.1073 28.0283 75.0022 28.1225 74.7918 28.1225H61.8555V48.8257C61.8555 49.0612 61.7504 49.179 61.54 49.179H54.4724Z" fill="#FFBB00"/>
<path d="M74.8742 48.8257L82.699 0.282639C82.7411 0.0942128 82.8463 0 83.0146 0H92.1646C92.3329 0 92.4381 0.0942128 92.4801 0.282639L99.9895 48.8257C100.032 49.0612 99.9474 49.179 99.7371 49.179H92.7325C92.5643 49.179 92.4591 49.0612 92.417 48.8257L91.7229 43.6676H83.1408L82.4466 48.8257C82.4045 49.0612 82.2994 49.179 82.1311 49.179H75.1266C74.9583 49.179 74.8742 49.0612 74.8742 48.8257ZM84.4028 36.107H90.4608L87.8736 16.2517L87.4949 13.6373L87.2425 16.2517L84.4028 36.107Z" fill="#FFBB00"/>
<path d="M6.05797 59.0007H3.91244V69.788H1.49346V59.0007H0.126208V56.8102H1.49346V55.8917C1.49346 54.4 1.84403 53.3165 2.54519 52.6413C3.26036 51.9504 4.3752 51.605 5.88969 51.605V53.8425C5.16049 53.8425 4.64865 53.9996 4.35416 54.3136C4.05968 54.6119 3.91244 55.138 3.91244 55.8917V56.8102H6.05797V59.0007Z" fill="white"/>
<path d="M11.5066 55.0908C11.0719 55.0908 10.7073 54.926 10.4128 54.5962C10.1183 54.2665 9.97106 53.8582 9.97106 53.3715C9.97106 52.8847 10.1183 52.4764 10.4128 52.1467C10.7073 51.817 11.0719 51.6521 11.5066 51.6521C11.9273 51.6521 12.2849 51.817 12.5794 52.1467C12.8738 52.4764 13.0211 52.8847 13.0211 53.3715C13.0211 53.8582 12.8738 54.2665 12.5794 54.5962C12.2849 54.926 11.9273 55.0908 11.5066 55.0908ZM12.6845 56.8102V69.788H10.2866V56.8102H12.6845Z" fill="white"/>
<path d="M20.7339 59.0007V66.1844C20.7339 66.6712 20.832 67.0245 21.0284 67.2443C21.2387 67.4484 21.5893 67.5505 22.0801 67.5505H23.5525V69.788H21.6594C20.5796 69.788 19.7523 69.5054 19.1773 68.9401C18.6024 68.3748 18.3149 67.4563 18.3149 66.1844V59.0007H16.9476V56.8102H18.3149V53.5834H20.7339V56.8102H23.5525V59.0007H20.7339Z" fill="white"/>
<path d="M33.7137 56.5983C34.6252 56.5983 35.4385 56.8102 36.1537 57.2342C36.8829 57.6581 37.4509 58.2862 37.8575 59.1184C38.2642 59.9507 38.4675 60.9556 38.4675 62.1332V69.788H36.0906V62.5336C36.0906 61.3717 35.8312 60.4845 35.3123 59.8721C34.7935 59.2441 34.0853 58.93 33.1878 58.93C32.2904 58.93 31.5752 59.2441 31.0423 59.8721C30.5235 60.4845 30.264 61.3717 30.264 62.5336V69.788H27.8661V56.8102H30.264V58.2941C30.6567 57.7602 31.1545 57.3441 31.7575 57.0458C32.3745 56.7474 33.0266 56.5983 33.7137 56.5983Z" fill="white"/>
<path d="M47.8366 70C46.9251 70 46.1048 69.8194 45.3756 69.4583C44.6604 69.0814 44.0925 68.579 43.6718 67.9509C43.2511 67.3071 43.0267 66.5926 42.9987 65.8075H45.4808C45.5228 66.3571 45.7542 66.8203 46.1749 67.1972C46.6096 67.5583 47.1495 67.7389 47.7946 67.7389C48.4677 67.7389 48.9865 67.5976 49.3511 67.3149C49.7298 67.0166 49.9191 66.6397 49.9191 66.1844C49.9191 65.6976 49.7087 65.3365 49.288 65.1009C48.8814 64.8654 48.2293 64.6063 47.3318 64.3237C46.4624 64.0568 45.7542 63.7977 45.2073 63.5464C44.6604 63.2952 44.1836 62.9105 43.777 62.3923C43.3843 61.8742 43.188 61.1911 43.188 60.3432C43.188 59.6523 43.3703 59.0242 43.7349 58.459C44.0995 57.878 44.6183 57.4226 45.2915 57.0929C45.9786 56.7631 46.7639 56.5983 47.6473 56.5983C48.9655 56.5983 50.0242 56.9751 50.8236 57.7288C51.6369 58.4668 52.0716 59.4796 52.1277 60.7672H49.7298C49.6877 60.1862 49.4773 59.723 49.0987 59.3775C48.7201 59.0321 48.2082 58.8594 47.5632 58.8594C46.9321 58.8594 46.4484 58.9928 46.1118 59.2598C45.7752 59.5267 45.607 59.88 45.607 60.3197C45.607 60.6651 45.7192 60.9556 45.9435 61.1911C46.1679 61.4266 46.4413 61.6151 46.7639 61.7564C47.0864 61.882 47.5632 62.0469 48.1942 62.251C49.0356 62.5022 49.7227 62.7613 50.2556 63.0283C50.8025 63.2795 51.2723 63.6563 51.6649 64.1588C52.0576 64.6613 52.2609 65.3286 52.2749 66.1608C52.2749 66.8988 52.0926 67.5583 51.728 68.1393C51.3634 68.7203 50.8446 69.1756 50.1715 69.5054C49.5124 69.8351 48.7341 70 47.8366 70Z" fill="white"/>
<path d="M61.1764 70C60.2649 70 59.4445 69.8194 58.7153 69.4583C58.0001 69.0814 57.4322 68.579 57.0115 67.9509C56.5908 67.3071 56.3665 66.5926 56.3384 65.8075H58.8205C58.8626 66.3571 59.0939 66.8203 59.5146 67.1972C59.9493 67.5583 60.4892 67.7389 61.1343 67.7389C61.8074 67.7389 62.3263 67.5976 62.6909 67.3149C63.0695 67.0166 63.2588 66.6397 63.2588 66.1844C63.2588 65.6976 63.0484 65.3365 62.6277 65.1009C62.2211 64.8654 61.569 64.6063 60.6715 64.3237C59.8021 64.0568 59.0939 63.7977 58.547 63.5464C58.0001 63.2952 57.5234 62.9105 57.1167 62.3923C56.724 61.8742 56.5277 61.1911 56.5277 60.3432C56.5277 59.6523 56.71 59.0242 57.0746 58.459C57.4392 57.878 57.9581 57.4226 58.6312 57.0929C59.3183 56.7631 60.1036 56.5983 60.9871 56.5983C62.3052 56.5983 63.364 56.9751 64.1633 57.7288C64.9766 58.4668 65.4113 59.4796 65.4674 60.7672H63.0695C63.0274 60.1862 62.8171 59.723 62.4384 59.3775C62.0598 59.0321 61.548 58.8594 60.9029 58.8594C60.2719 58.8594 59.7881 58.9928 59.4515 59.2598C59.115 59.5267 58.9467 59.88 58.9467 60.3197C58.9467 60.6651 59.0589 60.9556 59.2832 61.1911C59.5076 61.4266 59.7811 61.6151 60.1036 61.7564C60.4261 61.882 60.9029 62.0469 61.534 62.251C62.3753 62.5022 63.0625 62.7613 63.5953 63.0283C64.1422 63.2795 64.612 63.6563 65.0047 64.1588C65.3973 64.6613 65.6006 65.3286 65.6147 66.1608C65.6147 66.8988 65.4324 67.5583 65.0678 68.1393C64.7032 68.7203 64.1843 69.1756 63.5112 69.5054C62.8521 69.8351 62.0738 70 61.1764 70Z" fill="white"/>
</svg>
