<svg width="178" height="70" viewBox="0 0 178 70" fill="none" xmlns="http://www.w3.org/2000/svg">
<path d="M58.08 0.624511V44.4653H47.136V26.4169H30.112V44.4653H19.168V0.624511H30.112V17.7986H47.136V0.624511H58.08Z" fill="#E50F0F"/>
<path d="M95.8045 14.4887C94.9938 13.0315 93.8205 11.9282 92.2845 11.1788C90.7912 10.3877 89.0205 9.99219 86.9725 9.99219C83.4312 9.99219 80.5938 11.1371 78.4605 13.427C76.3272 15.6753 75.2605 18.6937 75.2605 22.4824C75.2605 26.5209 76.3698 29.6851 78.5885 31.975C80.8498 34.2233 83.9432 35.3474 87.8685 35.3474C90.5565 35.3474 92.8178 34.6812 94.6525 33.3489C96.5298 32.0167 97.8952 30.1015 98.7485 27.6034H84.8605V19.7346H108.669V29.6643C107.858 32.3289 106.471 34.8061 104.508 37.096C102.589 39.3859 100.135 41.2386 97.1485 42.6542C94.1618 44.0697 90.7912 44.7775 87.0365 44.7775C82.5992 44.7775 78.6312 43.8407 75.1325 41.9672C71.6765 40.052 68.9672 37.4083 67.0045 34.0359C65.0845 30.6635 64.1245 26.8124 64.1245 22.4824C64.1245 18.1525 65.0845 14.3013 67.0045 10.929C68.9672 7.51496 71.6765 4.87119 75.1325 2.99766C78.5885 1.08249 82.5352 0.124901 86.9725 0.124901C92.3485 0.124901 96.8712 1.39474 100.541 3.93442C104.253 6.47411 106.706 9.99219 107.9 14.4887H95.8045Z" fill="#E50F0F"/>
<path d="M135.979 44.9024C131.755 44.9024 127.872 43.9448 124.33 42.0297C120.832 40.1145 118.037 37.4499 115.947 34.0359C113.899 30.5803 112.874 26.7083 112.874 22.42C112.874 18.1317 113.899 14.2805 115.947 10.8665C118.037 7.45251 120.832 4.78793 124.33 2.87276C127.872 0.957585 131.755 0 135.979 0C140.202 0 144.064 0.957585 147.562 2.87276C151.104 4.78793 153.877 7.45251 155.883 10.8665C157.931 14.2805 158.954 18.1317 158.954 22.42C158.954 26.7083 157.931 30.5803 155.883 34.0359C153.835 37.4499 151.061 40.1145 147.562 42.0297C144.064 43.9448 140.202 44.9024 135.979 44.9024ZM135.979 35.16C139.562 35.16 142.421 33.9943 144.555 31.6628C146.73 29.3312 147.818 26.2503 147.818 22.42C147.818 18.548 146.73 15.4671 144.555 13.1772C142.421 10.8457 139.562 9.67994 135.979 9.67994C132.352 9.67994 129.451 10.8249 127.274 13.1148C125.141 15.4046 124.075 18.5064 124.075 22.42C124.075 26.292 125.141 29.3937 127.274 31.7252C129.451 34.0151 132.352 35.16 135.979 35.16Z" fill="#E50F0F"/>
<path d="M2.736 67.6815H8.376V69.8361H0V53.5597H2.736V67.6815Z" fill="white"/>
<path d="M20.7201 66.5105H13.7361L12.5361 69.8361H9.68006L15.6561 53.5363H18.8241L24.8001 69.8361H21.9201L20.7201 66.5105ZM19.9521 64.3326L17.2401 56.7682L14.5041 64.3326H19.9521Z" fill="white"/>
<path d="M36.3264 61.4754C37.2224 61.6315 37.9824 62.0921 38.6064 62.8571C39.2304 63.6222 39.5424 64.4887 39.5424 65.4567C39.5424 66.2842 39.3184 67.0336 38.8704 67.7049C38.4384 68.3607 37.8064 68.8837 36.9744 69.274C36.1424 69.6487 35.1744 69.8361 34.0704 69.8361H27.3984V53.5597H33.7584C34.8944 53.5597 35.8704 53.7471 36.6864 54.1218C37.5024 54.4965 38.1184 55.0039 38.5344 55.644C38.9504 56.2685 39.1584 56.9711 39.1584 57.7518C39.1584 58.6885 38.9024 59.4692 38.3904 60.0937C37.8784 60.7182 37.1904 61.1788 36.3264 61.4754ZM30.1344 60.3981H33.5184C34.4144 60.3981 35.1104 60.203 35.6064 59.8126C36.1184 59.4067 36.3744 58.829 36.3744 58.0796C36.3744 57.3458 36.1184 56.776 35.6064 56.37C35.1104 55.9485 34.4144 55.7377 33.5184 55.7377H30.1344V60.3981ZM33.8304 67.6581C34.7584 67.6581 35.4864 67.4395 36.0144 67.0023C36.5424 66.5652 36.8064 65.9563 36.8064 65.1756C36.8064 64.3794 36.5264 63.7471 35.9664 63.2787C35.4064 62.8103 34.6624 62.5761 33.7344 62.5761H30.1344V67.6581H33.8304Z" fill="white"/>
<path d="M50.1236 70C48.5716 70 47.1396 69.6487 45.8276 68.9461C44.5316 68.2279 43.4996 67.2365 42.7316 65.9719C41.9796 64.6917 41.6036 63.2553 41.6036 61.6628C41.6036 60.0703 41.9796 58.6417 42.7316 57.377C43.4996 56.1124 44.5316 55.1288 45.8276 54.4262C47.1396 53.708 48.5716 53.3489 50.1236 53.3489C51.6916 53.3489 53.1236 53.708 54.4196 54.4262C55.7316 55.1288 56.7636 56.1124 57.5156 57.377C58.2676 58.6417 58.6436 60.0703 58.6436 61.6628C58.6436 63.2553 58.2676 64.6917 57.5156 65.9719C56.7636 67.2365 55.7316 68.2279 54.4196 68.9461C53.1236 69.6487 51.6916 70 50.1236 70ZM50.1236 67.6815C51.2276 67.6815 52.2116 67.4395 53.0756 66.9555C53.9396 66.4559 54.6116 65.7533 55.0916 64.8478C55.5876 63.9266 55.8356 62.865 55.8356 61.6628C55.8356 60.4606 55.5876 59.4067 55.0916 58.5012C54.6116 57.5956 53.9396 56.9009 53.0756 56.4169C52.2116 55.9329 51.2276 55.6909 50.1236 55.6909C49.0196 55.6909 48.0356 55.9329 47.1716 56.4169C46.3076 56.9009 45.6276 57.5956 45.1316 58.5012C44.6516 59.4067 44.4116 60.4606 44.4116 61.6628C44.4116 62.865 44.6516 63.9266 45.1316 64.8478C45.6276 65.7533 46.3076 66.4559 47.1716 66.9555C48.0356 67.4395 49.0196 67.6815 50.1236 67.6815Z" fill="white"/>
<path d="M69.9999 69.8361L66.1599 63.3255H64.0719V69.8361H61.3359V53.5597H67.0959C68.3759 53.5597 69.4559 53.7783 70.3359 54.2155C71.2319 54.6526 71.8959 55.2381 72.3279 55.9719C72.7759 56.7057 72.9999 57.5254 72.9999 58.4309C72.9999 59.4926 72.6799 60.4606 72.0399 61.3349C71.4159 62.1936 70.4479 62.7791 69.1359 63.0913L73.2639 69.8361H69.9999ZM64.0719 61.1944H67.0959C68.1199 61.1944 68.8879 60.9446 69.3999 60.445C69.9279 59.9454 70.1919 59.274 70.1919 58.4309C70.1919 57.5878 69.9359 56.9321 69.4239 56.4637C68.9119 55.9797 68.1359 55.7377 67.0959 55.7377H64.0719V61.1944Z" fill="white"/>
<path d="M86.556 66.5105H79.572L78.372 69.8361H75.516L81.492 53.5363H84.66L90.636 69.8361H87.756L86.556 66.5105ZM85.788 64.3326L83.076 56.7682L80.34 64.3326H85.788Z" fill="white"/>
<path d="M104.01 53.5597V55.7377H99.5704V69.8361H96.8344V55.7377H92.3704V53.5597H104.01Z" fill="white"/>
<path d="M114.389 70C112.837 70 111.405 69.6487 110.093 68.9461C108.797 68.2279 107.765 67.2365 106.997 65.9719C106.245 64.6917 105.869 63.2553 105.869 61.6628C105.869 60.0703 106.245 58.6417 106.997 57.377C107.765 56.1124 108.797 55.1288 110.093 54.4262C111.405 53.708 112.837 53.3489 114.389 53.3489C115.957 53.3489 117.389 53.708 118.685 54.4262C119.997 55.1288 121.029 56.1124 121.781 57.377C122.533 58.6417 122.909 60.0703 122.909 61.6628C122.909 63.2553 122.533 64.6917 121.781 65.9719C121.029 67.2365 119.997 68.2279 118.685 68.9461C117.389 69.6487 115.957 70 114.389 70ZM114.389 67.6815C115.493 67.6815 116.477 67.4395 117.341 66.9555C118.205 66.4559 118.877 65.7533 119.357 64.8478C119.853 63.9266 120.101 62.865 120.101 61.6628C120.101 60.4606 119.853 59.4067 119.357 58.5012C118.877 57.5956 118.205 56.9009 117.341 56.4169C116.477 55.9329 115.493 55.6909 114.389 55.6909C113.285 55.6909 112.301 55.9329 111.437 56.4169C110.573 56.9009 109.893 57.5956 109.397 58.5012C108.917 59.4067 108.677 60.4606 108.677 61.6628C108.677 62.865 108.917 63.9266 109.397 64.8478C109.893 65.7533 110.573 66.4559 111.437 66.9555C112.301 67.4395 113.285 67.6815 114.389 67.6815ZM116.861 50.0703L111.557 52.623V50.6557L116.861 47.7986V50.0703Z" fill="white"/>
<path d="M134.266 69.8361L130.426 63.3255H128.338V69.8361H125.602V53.5597H131.362C132.642 53.5597 133.722 53.7783 134.602 54.2155C135.498 54.6526 136.162 55.2381 136.594 55.9719C137.042 56.7057 137.266 57.5254 137.266 58.4309C137.266 59.4926 136.946 60.4606 136.306 61.3349C135.682 62.1936 134.714 62.7791 133.402 63.0913L137.53 69.8361H134.266ZM128.338 61.1944H131.362C132.386 61.1944 133.154 60.9446 133.666 60.445C134.194 59.9454 134.458 59.274 134.458 58.4309C134.458 57.5878 134.202 56.9321 133.69 56.4637C133.178 55.9797 132.402 55.7377 131.362 55.7377H128.338V61.1944Z" fill="white"/>
<path d="M143.502 53.5597V69.8361H140.766V53.5597H143.502Z" fill="white"/>
<path d="M154.702 70C153.15 70 151.718 69.6487 150.406 68.9461C149.11 68.2279 148.078 67.2365 147.31 65.9719C146.558 64.6917 146.182 63.2553 146.182 61.6628C146.182 60.0703 146.558 58.6417 147.31 57.377C148.078 56.1124 149.11 55.1288 150.406 54.4262C151.718 53.708 153.15 53.3489 154.702 53.3489C156.27 53.3489 157.702 53.708 158.998 54.4262C160.31 55.1288 161.342 56.1124 162.094 57.377C162.846 58.6417 163.222 60.0703 163.222 61.6628C163.222 63.2553 162.846 64.6917 162.094 65.9719C161.342 67.2365 160.31 68.2279 158.998 68.9461C157.702 69.6487 156.27 70 154.702 70ZM154.702 67.6815C155.806 67.6815 156.79 67.4395 157.654 66.9555C158.518 66.4559 159.19 65.7533 159.67 64.8478C160.166 63.9266 160.414 62.865 160.414 61.6628C160.414 60.4606 160.166 59.4067 159.67 58.5012C159.19 57.5956 158.518 56.9009 157.654 56.4169C156.79 55.9329 155.806 55.6909 154.702 55.6909C153.598 55.6909 152.614 55.9329 151.75 56.4169C150.886 56.9009 150.206 57.5956 149.71 58.5012C149.23 59.4067 148.99 60.4606 148.99 61.6628C148.99 62.865 149.23 63.9266 149.71 64.8478C150.206 65.7533 150.886 66.4559 151.75 66.9555C152.614 67.4395 153.598 67.6815 154.702 67.6815Z" fill="white"/>
<path d="M171.41 70C170.29 70 169.282 69.8127 168.386 69.4379C167.49 69.0476 166.786 68.5012 166.274 67.7986C165.762 67.096 165.506 66.2763 165.506 65.3396H168.434C168.498 66.0422 168.778 66.6198 169.274 67.0726C169.786 67.5254 170.498 67.7518 171.41 67.7518C172.354 67.7518 173.09 67.5332 173.618 67.096C174.146 66.6432 174.41 66.0656 174.41 65.363C174.41 64.8166 174.242 64.3716 173.906 64.0281C173.586 63.6846 173.178 63.4192 172.682 63.2319C172.202 63.0445 171.53 62.8415 170.666 62.623C169.578 62.3419 168.69 62.0609 168.002 61.7799C167.33 61.4832 166.754 61.0304 166.274 60.4215C165.794 59.8126 165.554 59.0008 165.554 57.9859C165.554 57.0492 165.794 56.2295 166.274 55.5269C166.754 54.8244 167.426 54.2857 168.29 53.911C169.154 53.5363 170.154 53.3489 171.29 53.3489C172.906 53.3489 174.226 53.7471 175.25 54.5433C176.29 55.324 176.866 56.4012 176.978 57.7752H173.954C173.906 57.1819 173.618 56.6745 173.09 56.2529C172.562 55.8314 171.866 55.6206 171.002 55.6206C170.218 55.6206 169.578 55.8158 169.082 56.2061C168.586 56.5964 168.338 57.1585 168.338 57.8923C168.338 58.3919 168.49 58.8056 168.794 59.1335C169.114 59.4457 169.514 59.6955 169.994 59.8829C170.474 60.0703 171.13 60.2732 171.962 60.4918C173.066 60.7884 173.962 61.0851 174.65 61.3817C175.354 61.6784 175.946 62.139 176.426 62.7635C176.922 63.3724 177.17 64.192 177.17 65.2225C177.17 66.05 176.938 66.8306 176.474 67.5644C176.026 68.2982 175.362 68.8915 174.482 69.3443C173.618 69.7814 172.594 70 171.41 70Z" fill="white"/>
</svg>
