<svg width="193" height="70" viewBox="0 0 193 70" fill="none" xmlns="http://www.w3.org/2000/svg">
<path d="M0 0.718208H25.92V2.15463H18.288V44.986H20.88C24.96 44.986 28.2 43.8543 30.6 41.5908C33.048 39.3274 35.52 35.8452 38.016 31.1442H39.528L38.16 46.4224H0V44.986H4.248V2.15463H0V0.718208Z" fill="#FF9900"/>
<path d="M76.7475 26.2473V21.4157C76.7475 13.4501 76.3155 8.42263 75.4515 6.3333C74.4915 3.93927 73.1235 2.45932 71.3475 1.89346C70.3395 1.54524 69.1155 1.37112 67.6755 1.37112C66.2355 1.37112 64.9875 1.54524 63.9315 1.89346C62.9235 2.24168 62.0835 2.85107 61.4115 3.72163C60.7395 4.59219 60.1875 5.50627 59.7555 6.46388C59.3715 7.42149 59.0595 8.77086 58.8195 10.512C58.5315 13.0366 58.3875 16.7582 58.3875 21.6769V26.3779C58.3875 31.6883 58.6035 35.4752 59.0355 37.7386C59.5155 39.9585 60.0915 41.5473 60.7635 42.5049C62.2515 44.6378 64.5555 45.7042 67.6755 45.7042C71.4675 45.7042 73.9155 44.2678 75.0195 41.395C76.1715 38.4786 76.7475 33.4294 76.7475 26.2473ZM67.5315 47.0753C59.5155 47.0753 53.5155 45.1166 49.5315 41.1991C45.5955 37.2381 43.6275 31.5359 43.6275 24.0927C43.6275 16.6059 45.7395 10.7296 49.9635 6.46388C54.2355 2.15463 60.2595 0 68.0355 0C75.8115 0 81.6675 2.04581 85.6035 6.13742C89.5875 10.1855 91.5795 15.9529 91.5795 23.4397C91.5795 30.9265 89.5635 36.7375 85.5315 40.8726C81.5475 45.0078 75.5475 47.0753 67.5315 47.0753Z" fill="#FF9900"/>
<path d="M96.0469 0.718208H117.575C124.247 0.718208 129.239 1.54524 132.551 3.19929C135.911 4.80982 137.591 7.55208 137.591 11.4261C137.591 17.3894 133.631 20.9586 125.711 22.1339V22.2645C135.311 23.3527 140.111 27.1396 140.111 33.6252C140.111 38.3698 138.143 41.6997 134.207 43.6149C130.271 45.4866 124.607 46.4224 117.215 46.4224H96.0469V45.1819H100.727V1.95875H96.0469V0.718208ZM114.767 23.3092V45.1819H118.151C120.791 45.1819 122.639 44.3549 123.695 42.7008C124.751 41.0467 125.279 38.6092 125.279 35.3881V31.9277C125.279 29.0548 124.631 26.9002 123.335 25.4638C122.039 24.0274 119.735 23.3092 116.423 23.3092H114.767ZM114.767 1.95875V22.0686H116.639C119.135 22.0686 120.863 21.3939 121.823 20.0446C122.831 18.6517 123.335 16.5406 123.335 13.7113V10.6426C123.335 7.42149 122.903 5.17981 122.039 3.9175C121.175 2.61167 119.519 1.95875 117.071 1.95875H114.767Z" fill="#FF9900"/>
<path d="M178.068 26.2473V21.4157C178.068 13.4501 177.636 8.42263 176.772 6.3333C175.812 3.93927 174.444 2.45932 172.668 1.89346C171.66 1.54524 170.436 1.37112 168.996 1.37112C167.556 1.37112 166.308 1.54524 165.252 1.89346C164.244 2.24168 163.404 2.85107 162.732 3.72163C162.06 4.59219 161.508 5.50627 161.076 6.46388C160.692 7.42149 160.38 8.77086 160.14 10.512C159.852 13.0366 159.708 16.7582 159.708 21.6769V26.3779C159.708 31.6883 159.924 35.4752 160.356 37.7386C160.836 39.9585 161.412 41.5473 162.084 42.5049C163.572 44.6378 165.876 45.7042 168.996 45.7042C172.788 45.7042 175.236 44.2678 176.34 41.395C177.492 38.4786 178.068 33.4294 178.068 26.2473ZM168.852 47.0753C160.836 47.0753 154.836 45.1166 150.852 41.1991C146.916 37.2381 144.948 31.5359 144.948 24.0927C144.948 16.6059 147.06 10.7296 151.284 6.46388C155.556 2.15463 161.58 0 169.356 0C177.132 0 182.988 2.04581 186.924 6.13742C190.908 10.1855 192.9 15.9529 192.9 23.4397C192.9 30.9265 190.884 36.7375 186.852 40.8726C182.868 45.0078 176.868 47.0753 168.852 47.0753Z" fill="#FF9900"/>
<path d="M22.3846 65.6222C22.3846 65.1552 22.0075 64.9218 21.2535 64.9218H19.6259C18.1914 64.9218 17.1983 64.5715 16.6466 63.8711C16.4627 63.6376 16.3708 63.3708 16.3708 63.0706V61.3945C16.3708 60.8275 16.6834 60.3772 17.3087 60.0436C17.9524 59.6934 18.7248 59.5183 19.6259 59.5183H21.7777C22.6788 59.5183 23.442 59.6851 24.0673 60.0186C24.711 60.3522 25.0328 60.8108 25.0328 61.3945V62.4202H22.3846V61.6196C22.3846 61.1527 22.0075 60.9192 21.2535 60.9192H20.1501C19.396 60.9192 19.019 61.1527 19.019 61.6196V62.8204C19.019 63.3207 19.396 63.5542 20.1501 63.5209H21.7777C22.6788 63.5209 23.442 63.6876 24.0673 64.0212C24.711 64.3547 25.0328 64.8134 25.0328 65.3971V68.1238C25.0328 68.7075 24.7018 69.1661 24.0397 69.4997C23.4328 69.8332 22.6788 70 21.7777 70H19.6259C18.2098 70 17.2167 69.6414 16.6466 68.9243C16.4627 68.6908 16.3708 68.424 16.3708 68.1238V66.7229H19.019V67.8987C19.019 68.3656 19.396 68.5991 20.1501 68.5991H21.2535C22.0075 68.5991 22.3846 68.3656 22.3846 67.8987V65.6222Z" fill="white"/>
<path d="M36.6748 68.5991C37.4105 68.5991 37.7783 68.3656 37.7783 67.8987V59.5183H40.4541V68.1238C40.4541 68.6908 40.1323 69.1495 39.4886 69.4997C38.8633 69.8332 38.1001 70 37.199 70H34.9369C33.5208 70 32.5277 69.6414 31.9576 68.9243C31.7737 68.6908 31.6817 68.424 31.6817 68.1238V59.5183H34.33V67.8987C34.33 68.3656 34.707 68.5991 35.461 68.5991H36.6748Z" fill="white"/>
<path d="M51.8725 63.9711C52.6266 63.9711 53.0036 63.7377 53.0036 63.2707V61.6196C53.0036 61.1527 52.6266 60.9192 51.8725 60.9192H49.7484V63.9711H51.8725ZM47.1001 70V59.5183H52.4243C53.307 59.5183 54.0611 59.6851 54.6863 60.0186C55.33 60.3522 55.6519 60.8108 55.6519 61.3945V63.4958C55.6519 64.0795 55.33 64.5382 54.6863 64.8717C54.0611 65.2053 53.307 65.372 52.4243 65.372H49.7484V70H47.1001Z" fill="white"/>
<path d="M70.1243 70H62.207V59.5183H64.8553V68.5991H70.1243V70Z" fill="white"/>
<path d="M84.4811 70H76.5639V59.5183H84.4811V60.9192H79.2122V63.721H83.3501V65.1219H79.2122V68.5991H84.4811V70Z" fill="white"/>
<path d="M90.9911 70V59.5183H93.7221L97.0049 65.7473L100.315 59.5183H103.019V70H100.343V64.6716L98.4118 68.3489H95.6256L93.6394 64.6466V70H90.9911Z" fill="white"/>
<path d="M117.554 70H109.637V59.5183H117.554V60.9192H112.285V63.721H116.423V65.1219H112.285V68.5991H117.554V70Z" fill="white"/>
<path d="M124.064 70V59.5183H126.795L130.933 65.9224V59.5433H133.609V70H130.823L126.712 63.696V70H124.064Z" fill="white"/>
<path d="M148.937 60.9192H145.793V70H143.117V60.9192H139.972V59.5183H148.937V60.9192Z" fill="white"/>
<path d="M159.88 68.5991C160.616 68.5991 160.984 68.3656 160.984 67.8987V61.6196C160.984 61.1527 160.616 60.9192 159.88 60.9192H158.667C157.913 60.9192 157.536 61.1527 157.536 61.6196V67.8987C157.536 68.3656 157.913 68.5991 158.667 68.5991H159.88ZM154.887 61.3945C154.887 60.8275 155.2 60.3772 155.825 60.0436C156.469 59.6934 157.241 59.5183 158.142 59.5183H160.405C161.821 59.5183 162.814 59.8769 163.384 60.594C163.568 60.8275 163.66 61.0943 163.66 61.3945V68.1238C163.66 68.6908 163.338 69.1495 162.694 69.4997C162.069 69.8332 161.306 70 160.405 70H158.142C156.726 70 155.733 69.6414 155.163 68.9243C154.979 68.6908 154.887 68.424 154.887 68.1238V61.3945Z" fill="white"/>
<path d="M176.36 65.6222C176.36 65.1552 175.983 64.9218 175.229 64.9218H173.601C172.166 64.9218 171.173 64.5715 170.622 63.8711C170.438 63.6376 170.346 63.3708 170.346 63.0706V61.3945C170.346 60.8275 170.658 60.3772 171.284 60.0436C171.927 59.6934 172.7 59.5183 173.601 59.5183H175.753C176.654 59.5183 177.417 59.6851 178.042 60.0186C178.686 60.3522 179.008 60.8108 179.008 61.3945V62.4202H176.36V61.6196C176.36 61.1527 175.983 60.9192 175.229 60.9192H174.125C173.371 60.9192 172.994 61.1527 172.994 61.6196V62.8204C172.994 63.3207 173.371 63.5542 174.125 63.5209H175.753C176.654 63.5209 177.417 63.6876 178.042 64.0212C178.686 64.3547 179.008 64.8134 179.008 65.3971V68.1238C179.008 68.7075 178.677 69.1661 178.015 69.4997C177.408 69.8332 176.654 70 175.753 70H173.601C172.185 70 171.192 69.6414 170.622 68.9243C170.438 68.6908 170.346 68.424 170.346 68.1238V66.7229H172.994V67.8987C172.994 68.3656 173.371 68.5991 174.125 68.5991H175.229C175.983 68.5991 176.36 68.3656 176.36 67.8987V65.6222Z" fill="white"/>
</svg>
